<svg xmlns="http://www.w3.org/2000/svg" xmlns:xlink="http://www.w3.org/1999/xlink" viewBox="0 0 481.94 387.7"><defs><style>.cls-1,.cls-51,.cls-7,.cls-98{fill:none;}.cls-2{isolation:isolate;}.cls-3{clip-path:url(#clip-path);}.cls-4,.cls-49,.cls-97{mix-blend-mode:multiply;}.cls-5{fill:#db1a6d;}.cls-6{fill:#fff;}.cls-51,.cls-7{stroke:#fff;}.cls-7{stroke-linejoin:round;}.cls-10,.cls-11,.cls-12,.cls-13,.cls-14,.cls-15,.cls-16,.cls-17,.cls-18,.cls-19,.cls-20,.cls-21,.cls-22,.cls-23,.cls-24,.cls-25,.cls-26,.cls-27,.cls-28,.cls-29,.cls-30,.cls-31,.cls-32,.cls-33,.cls-34,.cls-35,.cls-36,.cls-37,.cls-38,.cls-39,.cls-40,.cls-41,.cls-42,.cls-43,.cls-44,.cls-45,.cls-46,.cls-47,.cls-8,.cls-9{fill:#00c46d;}.cls-109,.cls-60,.cls-8{opacity:0.29;}.cls-110,.cls-154,.cls-61,.cls-9{opacity:0.51;}.cls-10,.cls-125,.cls-178{opacity:0.75;}.cls-11,.cls-173,.cls-93{opacity:0.54;}.cls-12{opacity:0.36;}.cls-126,.cls-13{opacity:0.5;}.cls-14{opacity:0.05;}.cls-145,.cls-15{opacity:0.55;}.cls-16{opacity:0.7;}.cls-103,.cls-17,.cls-54{opacity:0.64;}.cls-136,.cls-165,.cls-18,.cls-82{opacity:0.08;}.cls-121,.cls-157,.cls-19,.cls-72{opacity:0.45;}.cls-116,.cls-20,.cls-67{opacity:0.68;}.cls-143,.cls-171,.cls-21,.cls-88{opacity:0.99;}.cls-22{opacity:0.2;}.cls-102,.cls-23,.cls-53{opacity:0.4;}.cls-24{opacity:0.21;}.cls-25{opacity:0.56;}.cls-26,.cls-99{opacity:0.66;}.cls-27{opacity:0.83;}.cls-182,.cls-28{opacity:0.34;}.cls-127,.cls-29{opacity:0.37;}.cls-112,.cls-167,.cls-30,.cls-63{opacity:0.23;}.cls-31{opacity:0.6;}.cls-32{opacity:0.11;}.cls-135,.cls-164,.cls-33,.cls-81{opacity:0.15;}.cls-180,.cls-34{opacity:0.95;}.cls-115,.cls-177,.cls-35,.cls-66{opacity:0.26;}.cls-134,.cls-163,.cls-36,.cls-80{opacity:0.33;}.cls-37{opacity:0.76;}.cls-106,.cls-38,.cls-59{opacity:0.93;}.cls-138,.cls-150,.cls-39,.cls-83{opacity:0.53;}.cls-40{opacity:0.87;}.cls-41{opacity:0;}.cls-42{opacity:0.78;}.cls-43,.cls-56{opacity:0.91;}.cls-100,.cls-44{opacity:0.62;}.cls-101,.cls-45,.cls-52{opacity:0.81;}.cls-104,.cls-46,.cls-55{opacity:0.85;}.cls-111,.cls-47,.cls-62{opacity:0.41;}.cls-48{clip-path:url(#clip-path-2);}.cls-49,.cls-50{fill:#f2d32d;}.cls-51,.cls-98{stroke-miterlimit:10;}.cls-52,.cls-53,.cls-54,.cls-55,.cls-56,.cls-57,.cls-58,.cls-59,.cls-60,.cls-61,.cls-62,.cls-63,.cls-64,.cls-65,.cls-66,.cls-67,.cls-68,.cls-69,.cls-70,.cls-71,.cls-72,.cls-73,.cls-74,.cls-75,.cls-76,.cls-77,.cls-78,.cls-79,.cls-80,.cls-81,.cls-82,.cls-83,.cls-84,.cls-85,.cls-86,.cls-87,.cls-88,.cls-89,.cls-90,.cls-91,.cls-92,.cls-93,.cls-94,.cls-95{fill:#e538ff;}.cls-129,.cls-57{opacity:0.49;}.cls-105,.cls-58{opacity:0.44;}.cls-113,.cls-64{opacity:0.24;}.cls-114,.cls-65{opacity:0.96;}.cls-117,.cls-152,.cls-68{opacity:0.43;}.cls-118,.cls-153,.cls-69{opacity:0.79;}.cls-119,.cls-155,.cls-70{opacity:0.46;}.cls-122,.cls-158,.cls-73{opacity:0.32;}.cls-123,.cls-159,.cls-74{opacity:0.16;}.cls-160,.cls-75{opacity:0.8;}.cls-130,.cls-76{opacity:0.69;}.cls-131,.cls-181,.cls-77{opacity:0.71;}.cls-132,.cls-161,.cls-78{opacity:0.13;}.cls-133,.cls-162,.cls-79{opacity:0.27;}.cls-139,.cls-84{opacity:0.84;}.cls-140,.cls-168,.cls-85{opacity:0.22;}.cls-141,.cls-169,.cls-86{opacity:0.86;}.cls-142,.cls-170,.cls-87{opacity:0.48;}.cls-144,.cls-89{opacity:0.03;}.cls-90{opacity:0.25;}.cls-146,.cls-172,.cls-91{opacity:0.67;}.cls-147,.cls-92{opacity:0.06;}.cls-174,.cls-94{opacity:0.57;}.cls-175,.cls-95{opacity:0.72;}.cls-96{clip-path:url(#clip-path-3);}.cls-97{fill:#1f97cc;}.cls-98{stroke:#fffffd;}.cls-100,.cls-101,.cls-102,.cls-103,.cls-104,.cls-105,.cls-106,.cls-107,.cls-108,.cls-109,.cls-110,.cls-111,.cls-112,.cls-113,.cls-114,.cls-115,.cls-116,.cls-117,.cls-118,.cls-119,.cls-120,.cls-121,.cls-122,.cls-123,.cls-124,.cls-125,.cls-126,.cls-127,.cls-128,.cls-129,.cls-130,.cls-131,.cls-132,.cls-133,.cls-134,.cls-135,.cls-136,.cls-137,.cls-138,.cls-139,.cls-140,.cls-141,.cls-142,.cls-143,.cls-144,.cls-145,.cls-146,.cls-147,.cls-99{fill:#ff75ff;}.cls-107{opacity:0.63;}.cls-108,.cls-179{opacity:0.61;}.cls-124{opacity:0.74;}.cls-128{opacity:0.31;}.cls-137{opacity:0.19;}.cls-148{clip-path:url(#clip-path-4);}.cls-149{fill:#5effa2;mix-blend-mode:darken;}.cls-150,.cls-151,.cls-152,.cls-153,.cls-154,.cls-155,.cls-156,.cls-157,.cls-158,.cls-159,.cls-160,.cls-161,.cls-162,.cls-163,.cls-164,.cls-165,.cls-166,.cls-167,.cls-168,.cls-169,.cls-170,.cls-171,.cls-172,.cls-173,.cls-174,.cls-175,.cls-176,.cls-177,.cls-178,.cls-179,.cls-180,.cls-181,.cls-182{fill:#ff45e1;}.cls-151{opacity:0.59;}.cls-166{opacity:0.89;}.cls-176{opacity:0.82;}</style><clipPath id="clip-path" transform="translate(20.85 2.8)"><path class="cls-1" d="M418,147c-1.22.41-7.19,6.47-8.42,7.5a59.58,59.58,0,0,0-4.91,5c-3,3.21-9.12,9.51-9.12,9.51s-13.62,7.42-18.52,8.19A54.14,54.14,0,0,0,366,180.7a108.89,108.89,0,0,0-2.73-12.13c-1.31-4.82-2-6.26-1.28-10.73a13.66,13.66,0,0,0,.16-3.31c1.2-.33,2.42-.66,3.49-.92,3.06-.76,7.63,1,9.18,1.69l.55.53c1.64,1.59,3.29,2.76,5.16,2.79s2.47-4.65,3.2-5,2.3-.28,2.63-1.42.34-2,1.17-2.06,1.39-2.27,1.39-2.27,2.49.45,2.42-1.63.16-4.06.09-5.94,1.09-3.52,1.88-7.36.82-6.13-2.33-11.38a22.26,22.26,0,0,0-14.2-10.84c-6.64-1.66-12-.39-12.7-.5l-5.13-4.66c-1.19-3.87-6.26-6.14-15.38-2s-9.83,16.51-9.85,24.53c0,.07,0,.14,0,.22-4.53-1.79-9.94-2.12-13.24-3.4-5.36-2.09-31.31-9.42-36.23-10.76s-7.78-.18-14.22,4.94-20.9,20.66-24.06,24.73-7,5.73-9.69,5.9-8.1,1-10.71-.18-6.28-3.06-7.13-2.85-.86,1.81.91,3.22,7.06,3.67,7.06,3.67-6.87.11-8.65.3-3.37-.77-3.8,1.13a2.4,2.4,0,0,0,1.22,2.7A6.7,6.7,0,0,0,212,159c-1.19,1,0,3.71,1.11,4.07a32.77,32.77,0,0,0,5,.51s-2.56,1.57-.84,2.87,3.57.95,8.45,1.5,13.05-2.25,13.05-2.25-3.51,2.52-3.62,4.86,1.37,4.06,3,2.48,3.26-3.44,6.06-6.7,3.65-4.79,3.76-6.83,7.18-10.21,16.1-16.73,18.46-12.24,18.46-12.24,13.38,7.49,19.8,10.88l1,.52c-1.86,1.18-3.7,2.36-5,3.24-3.22,2.22-9.11,8.23-12.38,11.09a92.23,92.23,0,0,1-8.39,5.93c-1.15.22-15.59,3.14-23.16,10.85a31.39,31.39,0,0,0-9.26,9c-6.62,9.4-4.52,21.17-4.52,21.17S224.61,218.55,217.83,230s-10.25,11.72-13.23,12-14.62-1.19-26.35,3.75c-10.8,4.56-21.86,15.47-32.45,16.22.07-.83-.29-1.08-.31-.82,0,0-1.89-1.25-4.84-3.69s-4.6-5.78-6.86-5.33-7.93,5.48-10.48,14.93-6.09,10.55-9.93,17.44a37.12,37.12,0,0,0-4.26,14.26,4.6,4.6,0,0,0,3.39,1c2.35-.07,7.19-3.67,10.7-7.74s11.15-5.48,14.27-7.6a7.54,7.54,0,0,0,3.38-5.13h0a187.92,187.92,0,0,1,36.86-9.47c21.24-3.14,19.75-8.07,30.75-8.13s14.61-2.14,20.56-5.78,17.79-10.56,26.44-17.09c3.65-2.76,7.9-7.48,11.81-12.79,1.15,1.17,2.14,2.16,2.9,2.87,4.28,4,9.91,11.47,15.4,15.83s12.85,13.54,12.85,13.54-9.48,9.57-14.13,17.38-8.22,21.15-10.61,31.85a69,69,0,0,1-7,17.76,12.17,12.17,0,0,1-1.09-1.06c-1.47-.11-2.35.39-2.85,3.5s-2.75,8.42-3.54,9.1-.78,3-.63,3.48,9.83,5.07,13.81,5.09,15,3.6,21.61,3.53,14-.55,14.88-1.88a4.64,4.64,0,0,0,.72-3.56c-.18-1.31-6.72-3.09-9.23-4.29s-9.2-6-10.81-8-1.94-5.15-3.68-5.46a4.73,4.73,0,0,0-.82-.06,164.21,164.21,0,0,1,14.24-28.86c7.1-10.85,13.11-22,15.73-25.79s9.13-6.49,9.08-14.28-5.72-19.7-8.7-26.34S303.26,209.23,299.61,205a37,37,0,0,1-5.7-9.63V195c1.67-1.45,6.72-5.64,9.87-5.9,3.81-.31,10.34-2.8,14.26-4.36.28-.11.64-.24,1.07-.37,4.17,1.9,10.76,2.48,17.56.6,6.41-1.78,8.85-6.9,10.86-11.61.47,1.67,1,3.34,1.59,5,1.94,5.27,2.38,14.19,5.19,17.93s5.11,3.78,10.06,2.23,17.71-9.12,21.39-11.59,10.71-7.92,15.45-9.33,7.48-6.07,9.36-8.32,4.61-5.85,6.28-8.39.06-3.53.06-3.53a31.15,31.15,0,0,0,2.23-4.31s.65-2.27,1-4.16S419.25,146.56,418,147Zm-74.77-19.43c1.24-5.81,5.38-11.69,8.73-12.57s4.75-4.41,5.37-4.09a16.45,16.45,0,0,1,2.16,1.91s-1.36.4-3.82,4.63-2.45,10.79.08,15.3a34.49,34.49,0,0,1,2.94,6.88,22.67,22.67,0,0,1-7.1,1.08c-2.17-1.92-5.93-5.3-8.92-8.28a8.59,8.59,0,0,0-1.42-1.11A10.38,10.38,0,0,0,343.26,127.55Z"/></clipPath><clipPath id="clip-path-2" transform="translate(20.85 2.8)"><path class="cls-1" d="M249,301.13c2.88-7.75,7.65-15.65,8.51-21.52s-.11-10.29-8.2-16.52-25-19-33.76-23.16a112,112,0,0,1-13.75-7.72c1.12-3.19,3.4-10.78,2.58-17.46-.61-4.93-.15-18.61-.29-24,0-.54,0-1,0-1.49,2.74,3.27,5.07,6,6.32,6.72,2.42,1.45,5.91,3.68,7.65,1.16s6.49-8.62,10.07-16.27,4.73-13.37,6.67-17.24,1.93-3.87,4.84-10.17,3.38-8.72,1.35-11.91-4.46-2.71-6.16-5.6-3.43-1.37-3.43-1.37c-1.65-2.52-4.26,1.26-4.26,1.26s-2.91-3.39-2.33-1.16a29.6,29.6,0,0,1,1.07,10.46c-.38,4.65,2.21,9.14,2.21,9.14s-3.07,10-6.36,14.2-8,9.29-8,9.29-1.27-1.82-3.77-6.12a14.86,14.86,0,0,0,.3-3.47c-.22-7.28-15.24-26.64-17.64-29.95a7.64,7.64,0,0,0-1.33-1.36c1.62-1.95,4.23-5,4.8-5.3.83-.4,3.77,1,5.06,1.48s4.35.69,5.39.14,1.52-2.37,1.89-3.85.87-1.38,1.62-2.41.16-1.55.16-1.55,1.16-1.12.92-1.74a4.33,4.33,0,0,1,.27-2.05s2.37.22,3.17-1.18-1.24-4.72-2-6.06-1.29-2-.73-5.31a24.22,24.22,0,0,0-.78-9.92A13.56,13.56,0,0,0,206,92.2c-3.2-2.66-13-6.44-18.63-5s-7.92,4.4-9.72,5.15L174.58,94l-2.72-2.18c-1.58-1.27-3.29-4.84-6.45-4.34s-3.75,1.73-4.92,3.08-5.4-.3-5.4-.3a23.89,23.89,0,0,0-6.48,0c-2.84.53-3.31,1.28-6,.73a11.7,11.7,0,0,0-5.78.76,10.64,10.64,0,0,1,3.93.35c2.16.61,1.65,1.62,1.65,1.62l-3.13.62a7.19,7.19,0,0,1-3.75-.41c-1.79-.78-4.4,1-4.4,1a16.51,16.51,0,0,1,5.35.67,5.33,5.33,0,0,0,3.78-.11L137,97a65,65,0,0,1-6.53,1.59c-1.92.24-5.3,3.11-6.16,5.33s-1.14,2.13-1,4.84-2.49,5.32-2.49,5.32.53-.42,2.08-1.56,1.58-3,2.8-3.83a4.34,4.34,0,0,1,3.18-.33,6.24,6.24,0,0,1-2.58,2.33,4.65,4.65,0,0,0-2.24,3.09s1.9-2.78,3.85-3.32,1.11-.52,3.09-1.59,2-2,2.69-2.87,3.27-.15,3.27-.15a24.75,24.75,0,0,0-3.61,3.09c-1.28,1.46-1.7,3.07-2.63,4a5.61,5.61,0,0,0-2,3c-.39,1.54-.37,2.78-2.83,3.67a6.66,6.66,0,0,0-3.5,3.43,4.45,4.45,0,0,1,4-1c2.75.44,2.47-2.65,2.47-2.65l.42,2.07a23.7,23.7,0,0,0,1.71,4.89c1.17,2.32,2,2.09,2.35,4.19a25.14,25.14,0,0,0,.85,3.67,2.31,2.31,0,0,1,1.16-2.19c1.29-.62,1.42-1.87,1.71-1.39s0,2.9-.86,4.81.4,1.92.4,1.92,1.27-3.15,2.69-3.49,1.85-1.57,1.86-1-.11,1.41-.13,3.85a5.59,5.59,0,0,0,2.16,4.06s-.35-2-.59-4a1.77,1.77,0,0,1,1.75-2.06,5.71,5.71,0,0,1,2.53,2.65,3.19,3.19,0,0,1-.07,2.17c.52-1.06,1.16-2.59,1-3.23-.33-1-.27-2,1-3.34a4.94,4.94,0,0,0,1.26-3s0,2.51-.21,4.06a9.09,9.09,0,0,0,1.13,4.83,48.31,48.31,0,0,1,1.94,5.36l.2-1.23s.3-2.8-.43-4.21a3.56,3.56,0,0,1,.71-4.19c1.17-1.35,1.31-2.83,1.66-4.47a2.42,2.42,0,0,1,1.67-1.93,5.61,5.61,0,0,1,.08,3.47,11.72,11.72,0,0,1-2,3.28s2-1.36,3.37-2.18,1.34-3.36,1.34-3.36,1,2.51,1.6,4.16.14,3.73-.73,6.4a9.84,9.84,0,0,0-.52,4.49,15.9,15.9,0,0,1,2.1-3.55c1.14-1.28,2.53-2.62,3-4.92s-.3-3.7-.75-5.24.66-1.22.66-1.22,1.89,4,2.2,4.37-.14-1.12-.77-3,1.13-2.74.5-4.88.91-3.66,1.11-6a33,33,0,0,0-.13-5.94c-.15-2,1.35-5.11,2.1-7.37s.49-7.1,1-7,1.8.57,1.94.05c-.2,1.4-1.55,4.68-1.8,6.65a29.07,29.07,0,0,0,.77,9.54c.86,3.44,3.87,8.78,3.9,9.56a54.49,54.49,0,0,1-3,6.41,15.16,15.16,0,0,0-2.36,1.39c-2.05,1.5-3.29,4.49-4.12,7.85-5.26,1.67-12.08,8.26-16.72,11.5-5,3.52-11.93,8.14-15.45,9.79s-4.49,3.86-5.92,6.32.09,15.11,2,20.4a86.17,86.17,0,0,1,3.76,15.22c.44,3.39,3.4,6.91,4.82,8.52s3.59.39,3.59.39,3.07,2.49,5.09,1.2c0,0,.64.88,3.07-.16l2.44-1.05s.46-.24,2-1.23.76-3-.88-5.18-3.13-7.31-5.77-8.32-5-2-5-2-1.84-8.48-1.64-13,.3-10.71.3-10.71,2-2.25,8.17-4.33c4.39-1.48,9.46-5.16,14-8.35-.1,3.9-.07,7.57.07,9.6.27,4.09,3.88,12.33,5.83,17s3.17,6,3.25,11.68c0,3.21-2.77,8.24-5.23,12a59.1,59.1,0,0,0-6.75,6.75,31.16,31.16,0,0,0-7.48,19.41c-.49,10-4.48,16.5-6.4,27s-7.45,27.35-9.79,30.83-11.31-.18-14.63-.3a211,211,0,0,0-32.16,3c-11.68,2.27-15.16.42-15.3.13,0,0-5.25-5.44-7.86-7.58s-6.38-2.4-9.37,1.43-6.43,8.53-8.26,13-6.44,6.55-9.82,15.82-1,15.31-.28,17.61,4.06,1.84,6.51,1.39,4.59-2.79,6-5.69,5.57-6.4,9.17-8.3,8.32-5.56,9.45-7.88a4.21,4.21,0,0,0,.47-1.3,43.35,43.35,0,0,0,6.15-1.65c4.31-1.62,13-2.57,20.63-1s22.68,2.11,32.07,3.19,11.28,2.35,16.31-.15,12.76-10.36,19.7-25c5.23-11,14.15-22.48,20.29-30.57,4.89,2.5,10.16,5.13,13.17,6.39,6.32,2.63,18.29,7.12,24.75,7.88s7.27,3.57,9.06,4.72.91,3.39.91,3.39a55.39,55.39,0,0,0-7.31,12.93c-3,7.59-2.36,10.53-4,19.39a176.39,176.39,0,0,1-4.81,20.34,42.42,42.42,0,0,1-3,6.25,6.53,6.53,0,0,0-1.21.17c-2.1.5-4.69,3.35-7,5.46a32.24,32.24,0,0,1-5.17,4,3.28,3.28,0,0,0-1.3,4.47c.76,1.47,4.81,5.45,9.27,8.27s5.41,6.15,11.46,11,14.82,6.62,18.83,8.22,5,.47,6.05-1.08,1.09-1.66-.9-5.6-6.15-9.35-8.79-14.86-4.87-11.24-6.66-12.44a98.28,98.28,0,0,1,3.31-15.52C235.64,326.93,246.07,308.88,249,301.13Z"/></clipPath><clipPath id="clip-path-3" transform="translate(20.85 2.8)"><path class="cls-1" d="M367.77,270.66c-2.75.44-5.92,3.61-12.27,5.49s-12.85,3-15.59,1-4.77-.72-6.79-2.17-8.23-10.24-11.55-16.45-9.81-18.62-13.42-26.56-6.06-11.26-6.64-17-4-8.08-6.64-10a60.51,60.51,0,0,1-7.33-6.57l1-.64a69.4,69.4,0,0,0-11.41-12.56c-6.35-5.2-16.33-16.28-18.76-19.63-.91-1.26-1.73-2.5-2.39-3.56a6.8,6.8,0,0,1,.37-1.21c1.51-3.68-1.09-4.76-.22-6.93s8.66-18.4,13-27.71c1.31-2.82,2.23-4.92,2.94-6.62,0,0,2,1.23,6.88.68,7.35,11.16,10,20.48,15,23.18,5.31,2.84,12-4,17.41-8.84s16.28-18.86,18.17-19.47a22.4,22.4,0,0,0,8.87-6.15c3.16-3.56,4.41-4.3,4.23-6.1s-1-2.19-1-2.19a3.05,3.05,0,0,0,1.07-2.55,5.72,5.72,0,0,0-1.26-3s1.15-1.31-.71-3.57c0,0-.74-2.91-2.24-3.1s-3,2.36-5.79,4.56S326,98.14,326,98.14s-.57-1,.12-3.29-.34-5.37-1.87-6c0,0-.64-.68-1.24,1.74s-1.18,6.38-2.11,9.29a13,13,0,0,0,.66,8.2s-4.79,5.08-7.28,7.57-5.26,2.48-7.83,3.72a50.57,50.57,0,0,0-5.53,3.3s-1.48-3.62-3.16-7.28c-.27-.58-.5-1.08-.71-1.55l.64-.35s-5.33-11.23-5.93-16.44-.9-13-5-16.91a22.51,22.51,0,0,0-5.44-4.08,14.16,14.16,0,0,0-6.48-5.31,26.5,26.5,0,0,1,6.08-.61c1.9.3,3.87,1.74,5.31,1.51s2.18-2.31,2.89-3.23.9-1.28,1.54-1.34.92-1.88.92-1.88a2.35,2.35,0,0,0,1.06-1.57c0-.92,0-1.51.45-2s2.45-.28,3.09-.58,1.35-.32.93-1.59-1.18-3.76-1.45-5.13,1.4-4,1.84-8-.18-10.1-1.81-13.23C292.82,27.48,283.59,23,275,23.61s-12.15,5.6-14,10.33-2.12,12.53.14,16.71c1.71,3.15-1,9.37-2.49,12.26l-2.56-1.27a127,127,0,0,0-15.37,2.82A25.87,25.87,0,0,0,236.3,66c-3,0-7,1.24-11,1.8-5.47.76-11.61,1.17-13.22,1.82a2,2,0,0,0-1.21,1.25c-3.59.57-8.84,1.38-12.58,1.83-6.21.74-9.36-.37-12.25,2.12s-8.35,6.64-15.1,12.73-16.1,18.13-18.72,20.08-4.1.81-8.95,4.6c-1.85,1.45-4.44,3.55-5.71,4.32a6.74,6.74,0,0,0-3.33,3.86c-.76,2.2-1.87,4-1.14,4.34s1.72-.45,2.1-1.92,2.1-2.58,2.77-3-1.13,1.82-2,3.41-1.85,3.15-2.6,4.62-.33,2.58.41,2.59,1.59-1.58,2.34-3a11.71,11.71,0,0,1,3.47-3.47c1.24-1,2-1.42,2.54-.86s-3.41,4.59-4.94,5.88a15.1,15.1,0,0,0-3.22,4.41c-.41.87,1.07,1.92,1.9,1.14s1.63-2.46,2.94-3.43,4.63-4.11,5.33-4.63,1,.07.16,1.37a21.71,21.71,0,0,1-3.88,4.71c-1.4,1-2.85,1.62-2.31,2.9s1.9.77,3.08-.6,4-3,5.17-4.55a38.75,38.75,0,0,1,5.52-4.84c.79-.57,1.12.31.48,2.61s-1,3.91,0,5.4,2,.8,2.36-1.38,1.61-5.53,2.41-8.24a64.4,64.4,0,0,0,1.42-7.74s9.13-11.71,17.11-14.89S196.42,87,196.42,87s12.45.42,17.25.41l2,0c1.55,2.21,2.18,3,2.18,3s1.49,0,3.63,0c-2.09,9.08-2.41,18.71-1.94,23.18.65,6.28-2.6,12.12-2.6,16.89s-6.28,12.12-11.26,16.12a17.89,17.89,0,0,0-6.07,9.43c-1.87,2-4.9,7.22-5.05,12.12a33.4,33.4,0,0,1-1.87,11c-1,2.75-4.19,7.66-7,13.29s-8.8,14.86-10.53,17.75a2.31,2.31,0,0,0,.82,2c-1.8,2.12-3.64,4.25-4.74,5.42-2.69,2.86-2.55,1.08-6,.17s-13.64-7.58-33.35-7.36c-15.58.17-32.07-2.51-35.2-4.83s-9.85-7.95-14.36-8.39c0,0-4.47-1.17-6.82,4.93s-3.91,17.78-7.15,25.59a27.42,27.42,0,0,0,.28,21.71c2.69,6.22,7.75,4.57,9.81,1.82s6-12,9.22-15.79,8-6.42,8.81-8a11.88,11.88,0,0,1,1.67-2.4s18.88,2.59,29.84,5.76,25.53,5,34,9.32,13.56,1.76,18.76.14c3.76-1.17,15.72-9.29,24.38-15.63a16.59,16.59,0,0,1,3.52,2c3.18,2.45,3,1.73,3,1.3s8.8-7.94,10.68-13c1.37-3.7,8-9.27,13.13-14.66A96.06,96.06,0,0,0,248.67,209c8.71,4.81,12.71,5.91,12.71,5.91a36.84,36.84,0,0,0,3.56-1.23c1.44.89,3,1.79,4.52,2.53,4.89,2.4,14,8.68,14,8.68s3.44,15.72,9.65,24.67,17.17,19.49,21.79,26.7,9.24,15.88,9.24,15.88c-.43,2,1.3,5.49,3.32,9.39s3.75,7.94,5.2,7.5,13.57-8.51,24.25-17.46a83.86,83.86,0,0,0,16.46-18.48S370.51,270.23,367.77,270.66Z"/></clipPath><clipPath id="clip-path-4" transform="translate(20.85 2.8)"><path class="cls-1" d="M252.73,40.66c-.37-1.82-2.8-1.69-2.8-1.69s.1-2.07-1.48-2.6-2.82,1.51-2.82,1.51a3.94,3.94,0,0,0-2.24-2.08,2.33,2.33,0,0,0-2.34.69s-1-2.11-2.52-2.08A3.81,3.81,0,0,0,236,35.64a10.9,10.9,0,0,1-3.1-.44c-1.33-.46-1.78,1.27-3.53,3.74s-3.15,3.62-2.87,4.89,3.25,6,2.93,8.51-2.12,3.28-3.31,5-8.72,6.79-14.49,9.43a41.57,41.57,0,0,0-9.49,6c.13-.89-10.63-6.71-17.64-11.38-8.3-5.53-13.39-9-12.33-8.9,2.38.16,7.26,3.45,9,4.7s3.65.33,4.77-.34,1.84-3.44,2-4.81,1.11-1.45,1.56-2.14a3.35,3.35,0,0,0,.32-1.88,11.67,11.67,0,0,0,2-.61c1-.41.44-2.58.44-2.58a8.42,8.42,0,0,1,2.24.43c1.46.44,2.5.57,2.74-.83s-2.11-8-.92-9.59,1.34-2.52,1.36-4.63,1.15-8.38,1-10.07a5.59,5.59,0,0,1,.81-2.8l1.13,1.87s0-2.11,0-3.09a13.5,13.5,0,0,0-1-3l2,0s-.92-.83-3.11-2.93-3.16-1.26-3.16-1.26a23.27,23.27,0,0,0-3.42-4A33.58,33.58,0,0,0,188,2l.45,2.19s-.76-.66-1.87-1.76S181.18,0,181.18,0a11.44,11.44,0,0,1,.88,2.17c-1.33-.7.36-1-9,1s-11.25,7-12.72,10.85-2.34,9.47-2.88,12.41c-.31,1.66-1.8,3.9-3,5.52l-3.65-1.47c-3.18-1.27-4.35-3.34-8.46-2.7h0c-7.06-2.61-16.74-2.22-19.84-3-3.66-.95-13.37-3.5-24.51-5.73s-16.71-1.75-20,1.6-8.28,4.77-15.44,13.2S50.71,48.27,47.2,52.56s-8.43,6.21-10.5,10-2.23,5.73-1,7.64,1.11,3,2.86,4,1,.62,2.87,3,1.9-.64,4.13,1.12,3,.31,3,.31,1.43,2.07,2.7,1.28,1.75-2.71,3.66-5.72,1-3.35.16-5.9-1.59-5.57-1.59-5.57-.16-1.11,7.16-5.74,9.23-6.67,16.71-9.7a71,71,0,0,0,14.48-8.43s10.51,6.2,15.76,8.91l.48.24c-3.24,4.6-8,14.24-10.82,24.43C94,84.71,92.88,88.69,91.61,94.26S87,104,83,107.31s-4.61,7.32-7,10.19c-.22.26-.42.52-.62.77h0c-1.69,1.93-5.74,6.55-7.17,16.25s-.32,15.76-.48,17.35-4.61,9.71-6.2,18S58,188.32,56.75,191a72.62,72.62,0,0,1-12.09,18c-7.32,8.12-11.14,11.94-16.71,25.31S18.08,255.79,16,257.38a38.58,38.58,0,0,0-5.89,1.76c-4,1.43-7.64,2.54-9.55,4.13S2,270,3.44,277s3.5,17.66,4.77,21.48,3.5,6.53,8,8.76,7.16,1.43,7.16,1.43,2.39-1.27,1-5.57-2.71-8.44-2.71-11.46,4.78-12.89,5.09-16.23,4.3-11.14,7.17-17.83,24-31.19,28.32-37.08,12.1-10.5,15.92-16.23,11.14-17,15.91-25.3c3.17-5.49,8.07-11.19,12-18.39A49.49,49.49,0,0,0,118.18,159c15.6-4,37.56-12.41,37.56-12.41s-5.09,7-5.73,14.16-.16,18.62-.47,25-5.42,15.44-5.42,15.44-3.82-.64-8.27,3-7.32,6.05-7,7.48,10.5,17.19,18,25.94A78.32,78.32,0,0,0,162,251.34s3-2.07,3.18-4.62-2.23-10.34-4.61-14.64-1-12.41-2.23-15.6L157,213.3s6.69-16.71,10.67-27.69,8.91-19.1,10.66-28.49a159.63,159.63,0,0,1,5.41-20.85c1.27-3.81,1.12-6.84-2.07-11s-4.77-6.2-8.59-6.2-20.05-1.91-27.22-1.28c-5.62.5-9.2-.39-12.93-.38,2.54-2.76,9.06-14.32,12-18.55,3.18-4.62,10.19-14.6,13.05-18.76a46.71,46.71,0,0,1,3.16-4c5,2.4,11.28,5,16.07,7.24,9.68,4.51,22.51,8.14,25.29,8.36a9.93,9.93,0,0,0,8-3.09c2.55-2.49,17.55-16.24,23.17-22.79s9.74-7.14,12-11.87S250,45.24,250,45.24,253.09,42.48,252.73,40.66Z"/></clipPath></defs><g class="cls-2"><g id="Слой_2" data-name="Слой 2"><g id="Слой_1-2" data-name="Слой 1"><g class="cls-3"><g class="cls-4"><path class="cls-5" d="M293.81,349.43c-3.79,0-8.89-1.13-13.39-2.12a48.25,48.25,0,0,0-8-1.41c-3.66,0-14-4.42-14.28-5.44-.18-.56-.25-3.12.77-4,.64-.55,2.87-5.68,3.38-8.8.45-2.83,1.3-3.93,3-3.93h.38a.51.51,0,0,1,.34.17,6.23,6.23,0,0,0,.58.6,68.07,68.07,0,0,0,6.63-17.08c3.34-14.94,6.93-25.7,10.67-32,4.15-7,12.2-15.42,13.89-17.16-1.39-1.7-7.71-9.32-12.49-13.12a87.8,87.8,0,0,1-9.84-9.91c-2-2.25-3.91-4.37-5.59-6-.66-.61-1.51-1.46-2.5-2.46-4,5.44-8.14,9.83-11.57,12.42-7.34,5.54-17,11.36-23.34,15.21-1.16.71-2.22,1.34-3.14,1.91-5.7,3.49-9.47,5.79-20.82,5.85a22.08,22.08,0,0,0-10.6,2.54c-3.66,1.65-8.67,3.9-20.07,5.58a185.55,185.55,0,0,0-36.48,9.35,8.24,8.24,0,0,1-3.56,5.17,27,27,0,0,1-4.92,2.27c-3.33,1.29-7.11,2.77-9.25,5.25-3.3,3.82-8.34,7.83-11.06,7.91h-.25a4.93,4.93,0,0,1-3.51-1.15.47.47,0,0,1-.14-.37A37,37,0,0,1,113,284.29a43,43,0,0,1,4-5.9A27.71,27.71,0,0,0,122.83,267c2.6-9.67,8.45-14.8,10.87-15.29a2.94,2.94,0,0,1,.51-.05c1.52,0,2.73,1.34,4.14,2.88a25.64,25.64,0,0,0,2.61,2.6c2.28,1.88,3.93,3.06,4.55,3.48h0a.78.78,0,0,1,.46.21,1.32,1.32,0,0,1,.28.69c6.21-.65,12.76-4.87,19.11-9a88.22,88.22,0,0,1,12.66-7.21c8.06-3.4,16-3.79,21.22-3.79l2.56,0,1.55,0c.47,0,.86,0,1.16,0,3-.27,6.26-.57,12.85-11.76,6.34-10.74,20.93-25,22.75-26.79-.26-1.83-1.47-12.61,4.64-21.28a32,32,0,0,1,9.36-9.07c7.49-7.58,21.28-10.53,23.28-10.92a88.87,88.87,0,0,0,8.25-5.84c1.14-1,2.61-2.39,4.16-3.86a93.38,93.38,0,0,1,8.26-7.27c1-.66,2.36-1.58,4.25-2.78l-.23-.12c-5.86-3.09-17.68-9.69-19.56-10.74-1.56.94-10.16,6.2-18.17,12.06-9.19,6.72-15.81,14.63-15.9,16.35-.12,2.18-1,3.78-3.88,7.14s-4.48,5.15-6.09,6.73a2.31,2.31,0,0,1-1.6.75,1.85,1.85,0,0,1-1.34-.6,4.15,4.15,0,0,1-.9-3,6.35,6.35,0,0,1,2-3.67,38.1,38.1,0,0,1-9.56,1.66,13.07,13.07,0,0,1-1.45-.08c-1.41-.16-2.55-.25-3.55-.32-2.45-.18-3.81-.28-5.14-1.28a1.71,1.71,0,0,1-.79-1.48,2.23,2.23,0,0,1,.64-1.35,21.37,21.37,0,0,1-3.86-.47,3.72,3.72,0,0,1-1.88-2.69,2.26,2.26,0,0,1,.6-2.24,6.18,6.18,0,0,1,2.29-1.13,2.84,2.84,0,0,1-.59-2.54,1.83,1.83,0,0,1,2-1.6,8.19,8.19,0,0,1,.83,0,9.36,9.36,0,0,0,.94.05,3.7,3.7,0,0,0,.47,0c1.15-.12,4.28-.21,6.46-.26a30.2,30.2,0,0,1-5.13-2.82c-1.44-1.15-1.77-2.37-1.6-3.13a1.23,1.23,0,0,1,.89-1,1.27,1.27,0,0,1,.28,0c.9,0,2.81.87,5.63,2.19l1.55.73a9.82,9.82,0,0,0,3.9.58c1.58,0,3.25-.16,4.71-.29l1.86-.16c1.2-.07,5.43-.7,9.32-5.71,3.12-4,17.62-19.61,24.15-24.81,4.63-3.69,7.63-5.56,11.14-5.56a13.32,13.32,0,0,1,3.52.53c5.41,1.46,31,8.71,36.29,10.77a35.24,35.24,0,0,0,5.48,1.37,51.08,51.08,0,0,1,7.09,1.78c.06-9.4,1.34-20.5,10.13-24.48a21.92,21.92,0,0,1,8.79-2.25c3.68,0,6.3,1.61,7.23,4.43l4.9,4.44c.22,0,.51,0,.88-.08a38.86,38.86,0,0,1,4.46-.28,29.62,29.62,0,0,1,7.28.88,22.77,22.77,0,0,1,14.51,11.06c3.22,5.37,3.19,7.81,2.39,11.74a32.16,32.16,0,0,1-1.19,4.21,8.43,8.43,0,0,0-.68,3c0,.95,0,1.9,0,2.91s-.09,2,0,3a2,2,0,0,1-.52,1.53,2.57,2.57,0,0,1-1.85.66h-.18c-.25.8-.8,2.13-1.7,2.23-.28,0-.37.18-.59,1.07-.05.2-.1.41-.16.64-.33,1.12-1.46,1.38-2.29,1.57a3.77,3.77,0,0,0-.63.17,10,10,0,0,0-.54,1.35c-.58,1.62-1.3,3.64-2.83,3.64-2.24,0-4.05-1.5-5.53-2.93l-.48-.46a20.8,20.8,0,0,0-7.23-1.8,6.08,6.08,0,0,0-1.55.17c-.95.23-2,.51-3.08.81a14.93,14.93,0,0,1-.07,2.11l1.23-.94a.47.47,0,0,1,.3-.1.5.5,0,0,1,.3.89s-.8.63-2.05,1.65c-.49,3.32,0,4.86.87,8.14l.5,1.78c1.28,4.74,2.21,8.79,2.64,11.54a52.38,52.38,0,0,1,10.63-3.3c4.59-.71,17.26-7.53,18.3-8.09.61-.63,6.23-6.44,9.06-9.45l1.47-1.57a36,36,0,0,1,3.48-3.47c.37-.31,1.22-1.13,2.21-2.08,3.07-2.94,5.5-5.22,6.37-5.52a3.11,3.11,0,0,1,1-.18,1.71,1.71,0,0,1,1.36.58,2.39,2.39,0,0,1,.37,2c-.32,1.9-1,4.13-1,4.22a36,36,0,0,1-2.05,4.1,2.1,2.1,0,0,1,.47,1,3.8,3.8,0,0,1-.78,2.91,104.14,104.14,0,0,1-6.31,8.44c-.33.4-.69.88-1.09,1.4-1.88,2.48-4.46,5.88-8.51,7.08-3.69,1.1-8.88,4.75-12.66,7.42-1,.7-1.89,1.33-2.65,1.84-3.53,2.37-16.41,10.05-21.52,11.65a16.36,16.36,0,0,1-4.9,1h0c-2.24,0-3.89-1-5.71-3.39s-2.62-6.61-3.44-10.72a55,55,0,0,0-1.82-7.34c-.41-1.13-.82-2.36-1.21-3.67-2.13,4.76-4.76,9-10.64,10.63a31.64,31.64,0,0,1-8.48,1.17,23.58,23.58,0,0,1-9.24-1.72l-.86.3c-6.8,2.72-11.52,4.16-14.4,4.4s-7.74,4.19-9.41,5.63v.07a36.58,36.58,0,0,0,5.58,9.4c3.59,4.16,12.9,18.81,15.89,25.5l.76,1.69c3.16,7,7.94,17.58,8,24.85,0,5.73-3.27,8.78-6.19,11.46a20.93,20.93,0,0,0-3,3.12c-1.11,1.6-2.86,4.57-5.06,8.32-2.94,5-6.61,11.26-10.66,17.45a162.87,162.87,0,0,0-14,28.12l.21,0c1.31.23,1.92,1.6,2.57,3a12.48,12.48,0,0,0,1.41,2.59c1.56,2,8.26,6.74,10.63,7.88.8.38,2,.83,3.34,1.3,4.09,1.49,6,2.3,6.17,3.37a5.05,5.05,0,0,1-.79,3.9c-.82,1.29-6,2-15.29,2.11Zm54-212.87c1.51,1.4,2.94,2.67,4,3.62a23,23,0,0,0,6.31-.88,34.75,34.75,0,0,0-2.75-6.32c-2.6-4.62-2.63-11.42-.08-15.8a15.3,15.3,0,0,1,3.45-4.47,13.18,13.18,0,0,0-1.47-1.3l-.57.69a9.15,9.15,0,0,1-4.56,3.36c-3.21.85-7.19,6.66-8.37,12.19a9.9,9.9,0,0,1-1.76,3.52,8.27,8.27,0,0,1,1.06.89l2.1,2c0-1.2,0-1.93,0-1.94a.48.48,0,0,1,.25-.45.42.42,0,0,1,.24-.07.57.57,0,0,1,.28.08C347,132.44,347.6,134,347.79,136.56Z" transform="translate(20.85 2.8)"/><path class="cls-6" d="M352.1,101.4c3.8,0,6.06,1.79,6.8,4.21l5.13,4.66h.13c.62,0,2.61-.36,5.41-.36a29.39,29.39,0,0,1,7.16.86,22.26,22.26,0,0,1,14.2,10.84c3.15,5.25,3.12,7.54,2.33,11.38s-2,5.49-1.88,7.36-.16,3.85-.09,5.94c0,1.45-1.14,1.67-1.87,1.67a3.55,3.55,0,0,1-.55,0s-.55,2.17-1.39,2.27-.85.92-1.17,2.06-1.9,1.12-2.63,1.42-1.32,5-3.18,5h0c-1.87,0-3.52-1.2-5.16-2.79l-.55-.53a21.59,21.59,0,0,0-7.51-1.87,6.9,6.9,0,0,0-1.67.18c-1.07.26-2.29.59-3.49.92a13.66,13.66,0,0,1-.16,3.31c0,.11,0,.21-.05.32,1.33-1,2.2-1.68,2.2-1.68s-.87.68-2.21,1.77c-.64,4.14.08,5.66,1.34,10.32A108.89,108.89,0,0,1,366,180.7a54.14,54.14,0,0,1,11.11-3.52c4.9-.77,18.52-8.19,18.52-8.19s6.11-6.3,9.12-9.51a59.58,59.58,0,0,1,4.91-5c1.23-1,7.2-7.09,8.42-7.5a2.64,2.64,0,0,1,.84-.16c.85,0,1.48.56,1.24,2-.32,1.89-1,4.16-1,4.16a31.15,31.15,0,0,1-2.23,4.31s1.6,1-.06,3.53-4.4,6.15-6.28,8.39-4.61,6.91-9.36,8.32-11.76,6.85-15.45,9.33-16.45,10-21.39,11.59a16.64,16.64,0,0,1-4.75,1c-2.06,0-3.58-.9-5.31-3.19-2.81-3.74-3.25-12.66-5.19-17.93-.59-1.62-1.12-3.29-1.59-5-2,4.71-4.45,9.83-10.86,11.61a31.34,31.34,0,0,1-8.35,1.15,22.8,22.8,0,0,1-9.21-1.75c-.43.13-.79.26-1.07.37-3.92,1.56-10.45,4.05-14.26,4.36-3.15.26-8.2,4.45-9.87,5.9v.4a37,37,0,0,0,5.7,9.63c3.65,4.22,12.84,18.74,15.81,25.38s8.65,18.55,8.7,26.34S317.67,267.25,315,271,306.41,286,299.31,296.8a164.65,164.65,0,0,0-14.25,28.86h.15a4.08,4.08,0,0,1,.68.06c1.74.31,2.07,3.39,3.68,5.46s8.3,6.81,10.81,8,9.05,3,9.23,4.29a4.64,4.64,0,0,1-.72,3.56c-.84,1.33-8.29,1.8-14.88,1.88h-.2c-6.61,0-17.47-3.52-21.41-3.53s-13.66-4.62-13.81-5.09-.16-2.8.63-3.48,3-6,3.54-9.1c.46-2.87,1.24-3.51,2.51-3.51h.34a13.76,13.76,0,0,0,1.08,1.07,68.66,68.66,0,0,0,7-17.77c2.39-10.7,6-24,10.61-31.85s14.13-17.38,14.13-17.38-7.36-9.18-12.85-13.54-11.12-11.81-15.4-15.83c-.75-.71-1.75-1.7-2.9-2.86-3.91,5.31-8.16,10-11.81,12.78C246.82,245.38,235,252.3,229,255.94s-9.56,5.72-20.56,5.78-9.51,5-30.75,8.13a187.92,187.92,0,0,0-36.86,9.47,7.54,7.54,0,0,1-3.38,5.13c-3.12,2.12-10.76,3.53-14.27,7.6s-8.35,7.67-10.7,7.74h-.23a4.5,4.5,0,0,1-3.16-1,37.12,37.12,0,0,1,4.26-14.26c3.84-6.89,7.38-8,9.93-17.44s8.23-14.47,10.48-14.93a3,3,0,0,1,.42,0c2,0,3.66,3.08,6.44,5.37,2.95,2.44,4.84,3.69,4.84,3.69s0-.1.07-.1.29.3.24.94c10.59-.76,21.65-11.68,32.45-16.24,7.94-3.35,15.83-3.75,21-3.75,1.68,0,3.08,0,4.11,0,.49,0,.9,0,1.21,0,3-.28,6.46-.52,13.23-12s22.85-26.87,22.85-26.87-2.1-11.77,4.52-21.17a31.39,31.39,0,0,1,9.26-9c7.57-7.71,22-10.63,23.16-10.85a92.23,92.23,0,0,0,8.39-5.93c3.27-2.86,9.16-8.87,12.38-11.09,1.26-.88,3.1-2.06,5-3.24l-1-.52c-6.42-3.39-19.8-10.88-19.8-10.88s-9.53,5.71-18.46,12.24-16,14.69-16.1,16.73-1,3.57-3.76,6.83-4.44,5.12-6.06,6.7a1.81,1.81,0,0,1-1.25.61c-1.06,0-1.83-1.37-1.74-3.09.11-2.34,3.62-4.86,3.62-4.86S232,168,227.14,168a12.38,12.38,0,0,1-1.39-.08c-4.88-.55-6.73-.2-8.45-1.5s.84-2.87.84-2.87a32.77,32.77,0,0,1-5-.51c-1.08-.36-2.3-3.06-1.11-4.07a6.7,6.7,0,0,1,3.08-1.24,2.4,2.4,0,0,1-1.22-2.7,1.33,1.33,0,0,1,1.5-1.21c.52,0,1.12.1,1.77.1a4.78,4.78,0,0,0,.53,0c1.78-.19,8.65-.3,8.65-.3s-5.3-2.25-7.06-3.67-1.75-3-.91-3.22l.16,0c1.07,0,4.5,1.74,7,2.87a10.42,10.42,0,0,0,4.11.63c2.37,0,5-.35,6.6-.45,2.72-.17,6.52-1.83,9.69-5.9s17.62-19.61,24.06-24.73c4.83-3.84,7.65-5.45,10.83-5.45a13,13,0,0,1,3.39.51c4.92,1.34,30.87,8.67,36.23,10.76,3.3,1.28,8.71,1.61,13.24,3.4a1.7,1.7,0,0,0,0-.22c0-8,.73-20.4,9.85-24.53a21.32,21.32,0,0,1,8.58-2.2m-6.44,33.87c0-1.88-.06-3.13-.06-3.13,1.1.72,1.57,2.48,1.71,4.66,1.64,1.51,3.18,2.89,4.3,3.88a22.68,22.68,0,0,0,7.11-1.07,34.25,34.25,0,0,0-2.94-6.88c-2.53-4.51-2.54-11.07-.08-15.3s3.82-4.63,3.82-4.63a16.45,16.45,0,0,0-2.16-1.91l-.08,0c-.66,0-2.09,3.26-5.29,4.11-3.35.88-7.49,6.76-8.73,12.57a10.38,10.38,0,0,1-2,3.75,8.59,8.59,0,0,1,1.42,1.11c.94.93,1.95,1.9,3,2.86m6.44-34.87v0a22.31,22.31,0,0,0-9,2.29c-8.83,4-10.3,14.85-10.43,24.24a56,56,0,0,0-6.49-1.57,34.55,34.55,0,0,1-5.4-1.34c-5.32-2.07-30.92-9.33-36.34-10.79a13.43,13.43,0,0,0-3.65-.55c-3.66,0-6.73,1.91-11.45,5.67-6.56,5.21-21.11,20.88-24.23,24.9-3.77,4.84-7.81,5.44-9,5.52-.54,0-1.18.09-1.87.15-1.46.14-3.11.29-4.67.29a9.39,9.39,0,0,1-3.69-.54l-1.55-.72c-3-1.39-4.83-2.24-5.84-2.24a1.75,1.75,0,0,0-.4,0,1.71,1.71,0,0,0-1.26,1.34c-.26,1.16.43,2.55,1.78,3.63a20.57,20.57,0,0,0,3.36,2c-1.77,0-3.6.13-4.43.21a3,3,0,0,1-.42,0c-.3,0-.6,0-.9-.05s-.58,0-.87,0a2.3,2.3,0,0,0-2.47,2,3.27,3.27,0,0,0,.29,2.37,6.33,6.33,0,0,0-1.83,1,2.73,2.73,0,0,0-.77,2.71,4.17,4.17,0,0,0,2.21,3.07,16.69,16.69,0,0,0,3.11.44,2.21,2.21,0,0,0-.23.88,2.16,2.16,0,0,0,1,1.9c1.45,1.1,2.94,1.21,5.4,1.39,1,.07,2.13.16,3.54.32a14,14,0,0,0,1.5.08,35.39,35.39,0,0,0,8.14-1.25,5.27,5.27,0,0,0-1.1,2.73,4.63,4.63,0,0,0,1,3.38,2.31,2.31,0,0,0,1.7.76,2.77,2.77,0,0,0,2-.89c1.63-1.6,3.27-3.45,6.12-6.77s3.88-5.15,4-7.43c.1-1.41,6.3-9.11,15.69-16,7.65-5.58,15.82-10.62,17.89-11.88,2.43,1.36,13,7.25,18.78,10.32-1.52,1-2.69,1.75-3.53,2.33a90.52,90.52,0,0,0-8.32,7.32c-1.55,1.47-3,2.85-4.15,3.84a85.15,85.15,0,0,1-8.11,5.75c-2.32.46-15.91,3.45-23.41,11a32.56,32.56,0,0,0-9.45,9.17c-6,8.59-5.1,18.91-4.76,21.38-2.52,2.45-16.38,16.09-22.65,26.73-6.46,11-9.62,11.25-12.4,11.51h-.06a10.47,10.47,0,0,1-1.12,0l-1.55,0-2.56,0c-5.29,0-13.27.39-21.42,3.83a88.12,88.12,0,0,0-12.73,7.25c-6.15,4-12.49,8-18.47,8.82a1.43,1.43,0,0,0-.29-.48,1.06,1.06,0,0,0-.7-.36c-.69-.48-2.26-1.62-4.39-3.38a25.61,25.61,0,0,1-2.56-2.54c-1.49-1.64-2.77-3.05-4.51-3.05a3.08,3.08,0,0,0-.61.06c-2.6.52-8.56,5.65-11.26,15.65a27.16,27.16,0,0,1-5.76,11.25,44.77,44.77,0,0,0-4.07,6,37.56,37.56,0,0,0-4.38,14.7,1,1,0,0,0,.28.75,5.41,5.41,0,0,0,3.87,1.3h.26c3-.09,8.1-4.23,11.43-8.08,2.06-2.39,5.77-3.84,9.05-5.12a27.05,27.05,0,0,0,5-2.31,8.83,8.83,0,0,0,3.7-5.22,185.83,185.83,0,0,1,36.12-9.22c11.47-1.7,16.52-4,20.2-5.62a21.66,21.66,0,0,1,10.4-2.5c11-.06,14.78-2.07,21.09-5.93l3.13-1.9c6.38-3.86,16-9.69,23.38-15.24a63.45,63.45,0,0,0,11.32-12.05c.83.83,1.53,1.52,2.11,2.06,1.66,1.56,3.55,3.67,5.55,5.91a87.28,87.28,0,0,0,9.91,10c4.48,3.56,10.32,10.5,12.13,12.71-2.22,2.29-9.63,10.17-13.65,16.92-3.77,6.34-7.38,17.15-10.72,32.14a66.67,66.67,0,0,1-6.27,16.36l-.09-.09a1,1,0,0,0-.68-.35h-.41c-2.45,0-3.13,2.09-3.5,4.35a28,28,0,0,1-3.22,8.51c-1.24,1.08-1.09,3.95-.91,4.53.48,1.5,11.37,5.77,14.76,5.79a49.57,49.57,0,0,1,7.91,1.4c4.52,1,9.65,2.13,13.5,2.13H294c14.33-.16,15.33-1.75,15.71-2.35a5.54,5.54,0,0,0,.87-4.23c-.19-1.35-2-2.14-6.5-3.77-1.29-.47-2.52-.91-3.29-1.28-2.56-1.23-9-5.91-10.45-7.74a11.71,11.71,0,0,1-1.36-2.49c-.61-1.37-1.25-2.8-2.56-3.24a162.19,162.19,0,0,1,13.71-27.48c4.06-6.21,7.73-12.46,10.67-17.48,2.2-3.74,3.94-6.7,5-8.28a20.8,20.8,0,0,1,2.9-3c2.85-2.62,6.4-5.88,6.36-11.83,0-7.38-4.85-18-8-25.06-.26-.59-.52-1.15-.75-1.68-3.07-6.86-12.28-21.35-16-25.62a35.56,35.56,0,0,1-5.38-9c2.94-2.51,6.69-5.12,8.87-5.29,2.93-.24,7.69-1.69,14.55-4.43l.65-.24a24.21,24.21,0,0,0,9.26,1.69,32.29,32.29,0,0,0,8.62-1.19c5.58-1.55,8.31-5.34,10.4-9.71.28.85.55,1.66.84,2.44a52.9,52.9,0,0,1,1.8,7.27c.83,4.16,1.7,8.47,3.54,10.92s3.71,3.59,6.1,3.59a17,17,0,0,0,5.05-1c5.15-1.62,18.1-9.34,21.65-11.71.76-.52,1.68-1.16,2.65-1.85,3.76-2.65,8.91-6.28,12.53-7.35,4.2-1.25,6.83-4.72,8.76-7.26.39-.51.75-1,1.08-1.38,1.74-2.08,4.56-5.77,6.34-8.49a4.3,4.3,0,0,0,.85-3.29,2.65,2.65,0,0,0-.36-.88,41.24,41.24,0,0,0,1.89-3.81s0-.08,0-.12.67-2.35,1-4.28a2.86,2.86,0,0,0-.47-2.41,2.25,2.25,0,0,0-1.75-.76,3.52,3.52,0,0,0-1.16.21c-.9.3-2.75,2-6.55,5.63-1,.94-1.83,1.75-2.19,2.05a38.86,38.86,0,0,0-3.52,3.52L404,158.8c-2.76,2.93-8.17,8.53-9,9.39-1.41.76-13.64,7.31-18.07,8a50.48,50.48,0,0,0-10.16,3.09c-.57-3.41-1.68-7.75-2.55-11-.18-.65-.35-1.24-.5-1.79-.89-3.14-1.31-4.65-.88-7.74,1.15-.94,1.89-1.51,1.89-1.51a1,1,0,0,0,.18-1.4,1,1,0,0,0-1.4-.19l-.35.27c0-.22,0-.44,0-.66,1-.29,1.93-.52,2.69-.71a6.1,6.1,0,0,1,1.43-.15,20.23,20.23,0,0,1,6.95,1.72l.41.4c1.46,1.41,3.44,3,5.85,3.07,1.91,0,2.73-2.3,3.34-4a11.38,11.38,0,0,1,.43-1.11l.37-.09c.84-.19,2.25-.51,2.66-1.92l.17-.66a7.09,7.09,0,0,1,.2-.7c1-.15,1.61-1.24,2-2.22a2.91,2.91,0,0,0,2-.8,2.52,2.52,0,0,0,.66-1.9c0-1,0-2,0-3s.08-2,0-2.95a8,8,0,0,1,.66-2.85,35.74,35.74,0,0,0,1.2-4.27c.83-4.06.86-6.58-2.45-12.1A23.26,23.26,0,0,0,377,109.8a30.54,30.54,0,0,0-7.4-.89,39.78,39.78,0,0,0-4.52.28l-.64.07L359.77,105c-1-2.91-3.88-4.64-7.67-4.64Zm-9.42,30.66a9.71,9.71,0,0,0,1.56-3.31c1.23-5.78,5.31-11.09,8-11.81a9.59,9.59,0,0,0,4.82-3.52l.26-.32c.19.16.41.36.64.58a18.28,18.28,0,0,0-3.13,4.25c-2.64,4.52-2.6,11.53.07,16.29a34.55,34.55,0,0,1,2.56,5.75,24.22,24.22,0,0,1-5.49.7c-1-.84-2.27-2-3.71-3.34-.21-2.59-.91-4.24-2.12-5a1,1,0,0,0-.55-.16,1,1,0,0,0-.49.13,1,1,0,0,0-.5.91s0,.27,0,.72l-1.23-1.2a9.09,9.09,0,0,0-.72-.64Z" transform="translate(20.85 2.8)"/></g><path class="cls-7" d="M312,214.94s-21.42,19.19-43.79,20.89" transform="translate(20.85 2.8)"/><path class="cls-7" d="M263.56,162.46s17.84,9.46,33.07,34.3" transform="translate(20.85 2.8)"/><path class="cls-7" d="M267.28,226.06s-38.59-22.78-25.77-45.94" transform="translate(20.85 2.8)"/><path class="cls-7" d="M225.91,210.86s7.86,24.3,30.73,36" transform="translate(20.85 2.8)"/><path class="cls-7" d="M240.26,141.48s6.72,14.57,15,17.78" transform="translate(20.85 2.8)"/><path class="cls-7" d="M250,130.33s6.72,14.57,15,17.78" transform="translate(20.85 2.8)"/><path class="cls-7" d="M401.6,185.35s-3.81-15.6-11.33-20.32" transform="translate(20.85 2.8)"/><path class="cls-7" d="M390.38,190.7s-3.81-15.59-11.33-20.32" transform="translate(20.85 2.8)"/><path class="cls-7" d="M257.64,334.4s3.24,4.86,19.95,7.64c9.24,1.54,22.42,4.36,41.18,1.28" transform="translate(20.85 2.8)"/><path class="cls-7" d="M139.34,252.33a50.08,50.08,0,0,0-7.72,7.59c-4.33,5.12-3,10.66-8.73,17.9s-9.47,14.63-10.89,23.91" transform="translate(20.85 2.8)"/><path class="cls-6" d="M345.6,132.14c3.29,2.14,1,13.6.83,17.71s-4.46,9.81-6.67,14.35-3.53,9.26-1.38,10.28a4.35,4.35,0,0,0,1.8.35,8.77,8.77,0,0,0,6.93-3.85c2.22-3.36,17-14.5,17-14.5s-14,10.94-16.15,15.89-4.42,10.68-11.27,12.58a31.42,31.42,0,0,1-8.37,1.15,22.37,22.37,0,0,1-9.29-1.8c-4.17-1.93-5.18-1.7-9.7-6.52a61.6,61.6,0,0,1-11.38-16,44.72,44.72,0,0,1-4-12.85c1.1-1.25,10.49-7.69,10.49-7.69a10.43,10.43,0,0,1,5,4.9c1.65,3.53,4.4,10.29,7.74,13.45,2.74,2.59,7,5.62,11.25,5.62a7.9,7.9,0,0,0,2.74-.47c5-1.81,11.33-9.36,13.14-15.28s1.32-17.32,1.32-17.32m0-1a1,1,0,0,0-.49.13,1,1,0,0,0-.5.91c0,.12.45,11.3-1.29,17s-7.95,13-12.52,14.63a7.08,7.08,0,0,1-2.4.41c-4.43,0-8.86-3.74-10.56-5.35-2.75-2.6-5.18-8-6.79-11.54-.26-.58-.51-1.12-.73-1.6a11.35,11.35,0,0,0-5.5-5.4,1,1,0,0,0-.38-.08.94.94,0,0,0-.56.18c-1,.66-9.53,6.55-10.68,7.84a1,1,0,0,0-.24.78A45.15,45.15,0,0,0,297,162.22a62.2,62.2,0,0,0,11.55,16.24c3.81,4.07,5.29,4.7,8,5.85.59.26,1.26.54,2,.9a23.61,23.61,0,0,0,9.71,1.89,32.38,32.38,0,0,0,8.64-1.19c7.18-2,9.74-8,11.8-12.86l.12-.29c1.65-3.86,12-12.49,15.84-15.49a1,1,0,0,0,.18-1.4,1,1,0,0,0-1.4-.19c-.6.46-14.92,11.29-17.21,14.75a7.76,7.76,0,0,1-6.09,3.4,3.3,3.3,0,0,1-1.38-.26.74.74,0,0,1-.39-.48c-.48-1.37.38-4.61,2.25-8.45.66-1.36,1.5-2.81,2.4-4.35,2.09-3.59,4.25-7.3,4.37-10.41,0-.9.17-2.19.34-3.68.78-7.06,1.21-13.06-1.62-14.9a1,1,0,0,0-.55-.16Z" transform="translate(20.85 2.8)"/><path class="cls-7" d="M146,258.81c.65,2.05,1,3.4-1.63,7.62s-3.64,7.74-2.4,10.9-3.08,7.39-3.08,7.39" transform="translate(20.85 2.8)"/><path class="cls-7" d="M262.81,324.1c.08-.66,3.12-.31,6.81,2.23s10.49.77,14.17-.29,7,1.31,7,1.31" transform="translate(20.85 2.8)"/><g class="cls-4"><path class="cls-8" d="M267.17,72.9l-3.55,48.48,52-44.93Z" transform="translate(20.85 2.8)"/><path class="cls-9" d="M263.62,121.38l48.48,3.56,3.55-48.49Z" transform="translate(20.85 2.8)"/><path class="cls-10" d="M409.06,132l3.55-48.48L364.13,80Z" transform="translate(20.85 2.8)"/><path class="cls-11" d="M360.58,128.49,409.06,132,364.13,80Z" transform="translate(20.85 2.8)"/><path class="cls-12" d="M315.65,76.45l-3.55,48.49,52-44.93Z" transform="translate(20.85 2.8)"/><path class="cls-13" d="M312.1,124.94l48.48,3.55L364.13,80Z" transform="translate(20.85 2.8)"/><path class="cls-14" d="M412.61,83.56,409.06,132l52-44.93Z" transform="translate(20.85 2.8)"/><path class="cls-15" d="M409.06,132l48.48,3.55,3.55-48.48Z" transform="translate(20.85 2.8)"/><path class="cls-16" d="M405.51,180.52,409.06,132l-48.48-3.55Z" transform="translate(20.85 2.8)"/><path class="cls-17" d="M357,177l48.48,3.55-44.93-52Z" transform="translate(20.85 2.8)"/><path class="cls-18" d="M312.1,124.94l-3.56,48.48,52-44.93Z" transform="translate(20.85 2.8)"/><path class="cls-19" d="M308.54,173.42,357,177l3.55-48.48Z" transform="translate(20.85 2.8)"/><path class="cls-20" d="M215.14,117.83l-3.56,48.48,52-44.93Z" transform="translate(20.85 2.8)"/><path class="cls-21" d="M211.58,166.31l48.48,3.55,3.56-48.48Z" transform="translate(20.85 2.8)"/><path class="cls-15" d="M308.54,173.42l3.56-48.48-48.48-3.56Z" transform="translate(20.85 2.8)"/><path class="cls-22" d="M260.06,169.86l48.48,3.56-44.92-52Z" transform="translate(20.85 2.8)"/><path class="cls-23" d="M409.06,132l-3.55,48.48,52-44.93Z" transform="translate(20.85 2.8)"/><path class="cls-24" d="M405.51,180.52,454,184.07l3.55-48.48Z" transform="translate(20.85 2.8)"/><path class="cls-25" d="M211.58,166.31,208,214.79l52-44.93Z" transform="translate(20.85 2.8)"/><path class="cls-26" d="M208,214.79l48.48,3.55,3.55-48.48Z" transform="translate(20.85 2.8)"/><path class="cls-27" d="M260.06,169.86l-3.55,48.48,52-44.92Z" transform="translate(20.85 2.8)"/><path class="cls-28" d="M256.51,218.34,305,221.9l3.55-48.48Z" transform="translate(20.85 2.8)"/><path class="cls-29" d="M308.54,173.42,305,221.9,357,177Z" transform="translate(20.85 2.8)"/><path class="cls-30" d="M305,221.9l48.48,3.55L357,177Z" transform="translate(20.85 2.8)"/><path class="cls-31" d="M450.43,232.55,454,184.07l-48.48-3.55Z" transform="translate(20.85 2.8)"/><path class="cls-32" d="M402,229l48.48,3.55-44.92-52Z" transform="translate(20.85 2.8)"/><path class="cls-33" d="M357,177l-3.56,48.48,52-44.93Z" transform="translate(20.85 2.8)"/><path class="cls-34" d="M353.47,225.45,402,229l3.56-48.48Z" transform="translate(20.85 2.8)"/><path class="cls-35" d="M111.07,207.69l-3.55,48.48,52-44.93Z" transform="translate(20.85 2.8)"/><path class="cls-36" d="M107.52,256.17,156,259.72l3.55-48.48Z" transform="translate(20.85 2.8)"/><path class="cls-37" d="M159.55,211.24,156,259.72l52-44.93Z" transform="translate(20.85 2.8)"/><path class="cls-38" d="M156,259.72l48.48,3.55L208,214.79Z" transform="translate(20.85 2.8)"/><path class="cls-39" d="M208,214.79l-3.55,48.48,52-44.93Z" transform="translate(20.85 2.8)"/><path class="cls-11" d="M204.48,263.27,253,266.83l3.55-48.49Z" transform="translate(20.85 2.8)"/><path class="cls-40" d="M256.51,218.34,253,266.83l52-44.93Z" transform="translate(20.85 2.8)"/><path class="cls-41" d="M253,266.83l48.48,3.55L305,221.9Z" transform="translate(20.85 2.8)"/><path class="cls-42" d="M305,221.9l-3.55,48.48,52-44.93Z" transform="translate(20.85 2.8)"/><path class="cls-21" d="M301.44,270.38l48.48,3.55,3.55-48.48Z" transform="translate(20.85 2.8)"/><path class="cls-43" d="M107.52,256.17,104,304.65l52-44.93Z" transform="translate(20.85 2.8)"/><path class="cls-8" d="M104,304.65l48.48,3.55L156,259.72Z" transform="translate(20.85 2.8)"/><path class="cls-9" d="M156,259.72l-3.55,48.48,52-44.93Z" transform="translate(20.85 2.8)"/><path class="cls-25" d="M152.45,308.2l48.48,3.55,3.55-48.48Z" transform="translate(20.85 2.8)"/><path class="cls-26" d="M204.48,263.27l-3.55,48.48,52-44.92Z" transform="translate(20.85 2.8)"/><path class="cls-44" d="M200.93,311.75l48.48,3.56L253,266.83Z" transform="translate(20.85 2.8)"/><path class="cls-45" d="M253,266.83l-3.55,48.48,52-44.93Z" transform="translate(20.85 2.8)"/><path class="cls-23" d="M249.41,315.31l48.48,3.55,3.55-48.48Z" transform="translate(20.85 2.8)"/><path class="cls-17" d="M301.44,270.38l-3.55,48.48,52-44.93Z" transform="translate(20.85 2.8)"/><path class="cls-46" d="M297.89,318.86l48.48,3.55,3.55-48.48Z" transform="translate(20.85 2.8)"/><path class="cls-8" d="M249.41,315.31l-3.55,48.48,52-44.93Z" transform="translate(20.85 2.8)"/><path class="cls-9" d="M245.86,363.79l48.48,3.55,3.55-48.48Z" transform="translate(20.85 2.8)"/><path class="cls-47" d="M297.89,318.86l-3.55,48.48,52-44.93Z" transform="translate(20.85 2.8)"/><path class="cls-30" d="M294.34,367.34l48.48,3.55,3.55-48.48Z" transform="translate(20.85 2.8)"/></g></g><g class="cls-48"><path class="cls-49" d="M249,301.13c2.88-7.75,7.65-15.65,8.51-21.52s-.11-10.29-8.2-16.52-25-19-33.76-23.16a112,112,0,0,1-13.75-7.72c1.12-3.19,3.4-10.78,2.58-17.46-.61-4.93-.15-18.61-.29-24,0-.54,0-1,0-1.49,2.74,3.27,5.07,6,6.32,6.72,2.42,1.45,5.91,3.68,7.65,1.16s6.49-8.62,10.07-16.27,4.73-13.37,6.67-17.24,1.93-3.87,4.84-10.17,3.38-8.72,1.35-11.91-4.46-2.71-6.16-5.6-3.43-1.37-3.43-1.37c-1.65-2.52-4.26,1.26-4.26,1.26s-2.91-3.39-2.33-1.16a29.6,29.6,0,0,1,1.07,10.46c-.38,4.65,2.21,9.14,2.21,9.14s-3.07,10-6.36,14.2-8,9.29-8,9.29-1.27-1.82-3.77-6.12a14.86,14.86,0,0,0,.3-3.47c-.22-7.28-15.24-26.64-17.64-29.95a7.64,7.64,0,0,0-1.33-1.36c1.62-1.95,4.23-5,4.8-5.3.83-.4,3.77,1,5.06,1.48s4.35.69,5.39.14,1.52-2.37,1.89-3.85.87-1.38,1.62-2.41.16-1.55.16-1.55,1.16-1.12.92-1.74a4.33,4.33,0,0,1,.27-2.05s2.37.22,3.17-1.18-1.24-4.72-2-6.06-1.29-2-.73-5.31a24.22,24.22,0,0,0-.78-9.92A13.56,13.56,0,0,0,206,92.2c-3.2-2.66-13-6.44-18.63-5s-7.92,4.4-9.72,5.15L174.58,94l-2.72-2.18c-1.58-1.27-3.29-4.84-6.45-4.34s-3.75,1.73-4.92,3.08-5.4-.3-5.4-.3a23.89,23.89,0,0,0-6.48,0c-2.84.53-3.31,1.28-6,.73a11.7,11.7,0,0,0-5.78.76,10.64,10.64,0,0,1,3.93.35c2.16.61,1.65,1.62,1.65,1.62l-3.13.62a7.19,7.19,0,0,1-3.75-.41c-1.79-.78-4.4,1-4.4,1a16.51,16.51,0,0,1,5.35.67,5.33,5.33,0,0,0,3.78-.11L137,97a65,65,0,0,1-6.53,1.59c-1.92.24-5.3,3.11-6.16,5.33s-1.14,2.13-1,4.84-2.49,5.32-2.49,5.32.53-.42,2.08-1.56,1.58-3,2.8-3.83a4.34,4.34,0,0,1,3.18-.33,6.24,6.24,0,0,1-2.58,2.33,4.65,4.65,0,0,0-2.24,3.09s1.9-2.78,3.85-3.32,1.11-.52,3.09-1.59,2-2,2.69-2.87,3.27-.15,3.27-.15a24.75,24.75,0,0,0-3.61,3.09c-1.28,1.46-1.7,3.07-2.63,4a5.61,5.61,0,0,0-2,3c-.39,1.54-.37,2.78-2.83,3.67a6.66,6.66,0,0,0-3.5,3.43,4.45,4.45,0,0,1,4-1c2.75.44,2.47-2.65,2.47-2.65l.42,2.07a23.7,23.7,0,0,0,1.71,4.89c1.17,2.32,2,2.09,2.35,4.19a25.14,25.14,0,0,0,.85,3.67,2.31,2.31,0,0,1,1.16-2.19c1.29-.62,1.42-1.87,1.71-1.39s0,2.9-.86,4.81.4,1.92.4,1.92,1.27-3.15,2.69-3.49,1.85-1.57,1.86-1-.11,1.41-.13,3.85a5.59,5.59,0,0,0,2.16,4.06s-.35-2-.59-4a1.77,1.77,0,0,1,1.75-2.06,5.71,5.71,0,0,1,2.53,2.65,3.19,3.19,0,0,1-.07,2.17c.52-1.06,1.16-2.59,1-3.23-.33-1-.27-2,1-3.34a4.94,4.94,0,0,0,1.26-3s0,2.51-.21,4.06a9.09,9.09,0,0,0,1.13,4.83,48.31,48.31,0,0,1,1.94,5.36l.2-1.23s.3-2.8-.43-4.21a3.56,3.56,0,0,1,.71-4.19c1.17-1.35,1.31-2.83,1.66-4.47a2.42,2.42,0,0,1,1.67-1.93,5.61,5.61,0,0,1,.08,3.47,11.72,11.72,0,0,1-2,3.28s2-1.36,3.37-2.18,1.34-3.36,1.34-3.36,1,2.51,1.6,4.16.14,3.73-.73,6.4a9.84,9.84,0,0,0-.52,4.49,15.9,15.9,0,0,1,2.1-3.55c1.14-1.28,2.53-2.62,3-4.92s-.3-3.7-.75-5.24.66-1.22.66-1.22,1.89,4,2.2,4.37-.14-1.12-.77-3,1.13-2.74.5-4.88.91-3.66,1.11-6a33,33,0,0,0-.13-5.94c-.15-2,1.35-5.11,2.1-7.37s.49-7.1,1-7,1.8.57,1.94.05c-.2,1.4-1.55,4.68-1.8,6.65a29.07,29.07,0,0,0,.77,9.54c.86,3.44,3.87,8.78,3.9,9.56a54.49,54.49,0,0,1-3,6.41,15.16,15.16,0,0,0-2.36,1.39c-2.05,1.5-3.29,4.49-4.12,7.85-5.26,1.67-12.08,8.26-16.72,11.5-5,3.52-11.93,8.14-15.45,9.79s-4.49,3.86-5.92,6.32.09,15.11,2,20.4a86.17,86.17,0,0,1,3.76,15.22c.44,3.39,3.4,6.91,4.82,8.52s3.59.39,3.59.39,3.07,2.49,5.09,1.2c0,0,.64.88,3.07-.16l2.44-1.05s.46-.24,2-1.23.76-3-.88-5.18-3.13-7.31-5.77-8.32-5-2-5-2-1.84-8.48-1.64-13,.3-10.71.3-10.71,2-2.25,8.17-4.33c4.39-1.48,9.46-5.16,14-8.35-.1,3.9-.07,7.57.07,9.6.27,4.09,3.88,12.33,5.83,17s3.17,6,3.25,11.68c0,3.21-2.77,8.24-5.23,12a59.1,59.1,0,0,0-6.75,6.75,31.16,31.16,0,0,0-7.48,19.41c-.49,10-4.48,16.5-6.4,27s-7.45,27.35-9.79,30.83-11.31-.18-14.63-.3a211,211,0,0,0-32.16,3c-11.68,2.27-15.16.42-15.3.13,0,0-5.25-5.44-7.86-7.58s-6.38-2.4-9.37,1.43-6.43,8.53-8.26,13-6.44,6.55-9.82,15.82-1,15.31-.28,17.61,4.06,1.84,6.51,1.39,4.59-2.79,6-5.69,5.57-6.4,9.17-8.3,8.32-5.56,9.45-7.88a4.21,4.21,0,0,0,.47-1.3,43.35,43.35,0,0,0,6.15-1.65c4.31-1.62,13-2.57,20.63-1s22.68,2.11,32.07,3.19,11.28,2.35,16.31-.15,12.76-10.36,19.7-25c5.23-11,14.15-22.48,20.29-30.57,4.89,2.5,10.16,5.13,13.17,6.39,6.32,2.63,18.29,7.12,24.75,7.88s7.27,3.57,9.06,4.72.91,3.39.91,3.39a55.39,55.39,0,0,0-7.31,12.93c-3,7.59-2.36,10.53-4,19.39a176.39,176.39,0,0,1-4.81,20.34,42.42,42.42,0,0,1-3,6.25,6.53,6.53,0,0,0-1.21.17c-2.1.5-4.69,3.35-7,5.46a32.24,32.24,0,0,1-5.17,4,3.28,3.28,0,0,0-1.3,4.47c.76,1.47,4.81,5.45,9.27,8.27s5.41,6.15,11.46,11,14.82,6.62,18.83,8.22,5,.47,6.05-1.08,1.09-1.66-.9-5.6-6.15-9.35-8.79-14.86-4.87-11.24-6.66-12.44a98.28,98.28,0,0,1,3.31-15.52C235.64,326.93,246.07,308.88,249,301.13ZM133.3,113.94a39.44,39.44,0,0,1,2.78-3.15c1.52-1.53,4-2.77,4.43-3.77a4.7,4.7,0,0,1-1.7,2.55c-1.23.72-1.49,1-2.57,3.52s-4.61,2.5-4.61,2.5Zm.84,17.29a9,9,0,0,0-.36-3.34,2.86,2.86,0,0,1,.46-3.06l.07.42a12.48,12.48,0,0,0,.48,2.71A4.21,4.21,0,0,1,134.14,131.23ZM137.45,118c-1.72,1.44-3.41.71-5,1.36s-1,4.2-1,4.2-1.52-3.52-1.07-4.62,2.26-1.84,4.63-2.39,4.79-1.86,5.32-3.06A14,14,0,0,1,137.45,118Zm7,11.15a10.88,10.88,0,0,1-2.29,4.2,15.39,15.39,0,0,0,1-4.12,8.56,8.56,0,0,1,2.47-5.23S144.85,127.09,144.48,129.12Zm5.06-6.9s-.49,2.19-1,4.63a6.3,6.3,0,0,1-2.6,3.67,16.49,16.49,0,0,0,1.58-3.2c.88-2.22.62-2.41.74-4.47s1.63-2.44,2-3.73Zm.81-26.49a16.24,16.24,0,0,0-5.15,1.4,5.94,5.94,0,0,1,3.42-2.69c2.27-.58,4.94-.33,6.13-1.29A6.39,6.39,0,0,1,150.35,95.73Zm6.86,24.64a8.88,8.88,0,0,0-.38,3.36,4.16,4.16,0,0,1-1.09,3.07,15.3,15.3,0,0,0-.59-4.17c-.57-1.47,1.41-2.38,2.86-3.24Zm8.38,2.44a35.69,35.69,0,0,0-.46,5.52,26.83,26.83,0,0,1-.65-4.16c-.11-2,1.38-3.91.91-5.85A13.31,13.31,0,0,1,165.59,122.81Z" transform="translate(20.85 2.8)"/><path class="cls-50" d="M146.82,139.54c-.31.65-.58,1.12-.58,1.12A4.63,4.63,0,0,0,146.82,139.54Z" transform="translate(20.85 2.8)"/><path class="cls-51" d="M168.67,141.3s-5,16.24,14.66,20.16" transform="translate(20.85 2.8)"/><path class="cls-51" d="M190.07,136.74c6.25,6.77,6.78,13.55,8.43,16.55s7.36,11.43,10.47,16.85,4.65,7.64,4.65,7.64,4.74-5.13,8-9.29,6.36-14.2,6.36-14.2-2.59-4.49-2.21-9.14a29.6,29.6,0,0,0-1.07-10.46c-.58-2.23,2.33,1.16,2.33,1.16s2.61-3.78,4.26-1.26c0,0,1.73-1.52,3.43,1.37s4.12,2.41,6.16,5.6,1.55,5.62-1.35,11.91-2.91,6.3-4.84,10.17-3.1,9.59-6.67,17.24-8.33,13.75-10.07,16.27-5.23.29-7.65-1.16-8.91-10.26-14.63-16.26-9.69-16.46-16.08-22.56-11.14-10.64-11-15.87S179.7,125.51,190.07,136.74Z" transform="translate(20.85 2.8)"/><path class="cls-51" d="M146.26,262.77s17.74,11.1,34.7,13.9" transform="translate(20.85 2.8)"/><path class="cls-51" d="M183.79,266.87s17-30,20.89-39.46" transform="translate(20.85 2.8)"/><path class="cls-51" d="M222.57,239.6s-.28,28.41-15.68,38.71" transform="translate(20.85 2.8)"/><path class="cls-51" d="M77.46,290.6c-.21,3.45-4.69,10.11-6.2,15.8s1,7.59.67,12.2" transform="translate(20.85 2.8)"/><path class="cls-51" d="M67,286.47s-6.43,5.66-9.71,11.82-4.39,9.85-9.38,15.61-4.44,10.71-4.57,17.35,3.83,12.68,3.83,12.68" transform="translate(20.85 2.8)"/><path class="cls-51" d="M210.47,341.82c4.12-1.19,4.7-1.15,10.42,4.42s10.83-1.92,15.24,1.54" transform="translate(20.85 2.8)"/><path class="cls-51" d="M251.06,382.56a143.62,143.62,0,0,0-19.27-7.29c-8.54-2.27-11.52-10-18.42-15.34s-8.81-6.92-9.12-11.28" transform="translate(20.85 2.8)"/><g class="cls-4"><path class="cls-52" d="M94.5,76.79l-3.12,49.28,52.39-46.16Z" transform="translate(20.85 2.8)"/><path class="cls-53" d="M91.38,126.07l49.28,3.11,3.11-49.27Z" transform="translate(20.85 2.8)"/><path class="cls-54" d="M143.77,79.91l-3.11,49.27L193.05,83Z" transform="translate(20.85 2.8)"/><path class="cls-55" d="M140.66,129.18l49.27,3.12L193.05,83Z" transform="translate(20.85 2.8)"/><path class="cls-56" d="M288.48,138.53l3.12-49.28-49.28-3.11Z" transform="translate(20.85 2.8)"/><path class="cls-57" d="M239.21,135.41l49.27,3.12L242.32,86.14Z" transform="translate(20.85 2.8)"/><path class="cls-58" d="M193.05,83l-3.12,49.28,52.39-46.16Z" transform="translate(20.85 2.8)"/><path class="cls-59" d="M189.93,132.3l49.28,3.11,3.11-49.27Z" transform="translate(20.85 2.8)"/><path class="cls-60" d="M91.38,126.07l-3.11,49.27,52.39-46.16Z" transform="translate(20.85 2.8)"/><path class="cls-61" d="M88.27,175.34l49.27,3.12,3.12-49.28Z" transform="translate(20.85 2.8)"/><path class="cls-62" d="M140.66,129.18l-3.12,49.28,52.39-46.16Z" transform="translate(20.85 2.8)"/><path class="cls-63" d="M137.54,178.46l49.28,3.11,3.11-49.27Z" transform="translate(20.85 2.8)"/><path class="cls-64" d="M189.93,132.3l-3.11,49.27,52.39-46.16Z" transform="translate(20.85 2.8)"/><path class="cls-65" d="M186.82,181.57l49.27,3.12,3.12-49.28Z" transform="translate(20.85 2.8)"/><path class="cls-66" d="M239.21,135.41l-3.12,49.28,52.39-46.16Z" transform="translate(20.85 2.8)"/><path class="cls-67" d="M236.09,184.69l49.28,3.11,3.11-49.27Z" transform="translate(20.85 2.8)"/><path class="cls-68" d="M282.25,237.08l3.12-49.28-49.28-3.11Z" transform="translate(20.85 2.8)"/><path class="cls-69" d="M233,234l49.27,3.12-46.16-52.39Z" transform="translate(20.85 2.8)"/><path class="cls-61" d="M233,234l3.11-49.27-49.27-3.12Z" transform="translate(20.85 2.8)"/><path class="cls-70" d="M183.7,230.85,233,234l-46.16-52.39Z" transform="translate(20.85 2.8)"/><path class="cls-71" d="M183.7,230.85l3.12-49.28-49.28-3.11Z" transform="translate(20.85 2.8)"/><path class="cls-72" d="M134.43,227.73l49.27,3.12-46.16-52.39Z" transform="translate(20.85 2.8)"/><path class="cls-73" d="M134.43,227.73l3.11-49.27-49.27-3.12Z" transform="translate(20.85 2.8)"/><path class="cls-74" d="M85.15,224.62l49.28,3.11L88.27,175.34Z" transform="translate(20.85 2.8)"/><path class="cls-69" d="M279.14,286.35l3.11-49.27L233,234Z" transform="translate(20.85 2.8)"/><path class="cls-75" d="M229.86,283.24l49.28,3.11L233,234Z" transform="translate(20.85 2.8)"/><path class="cls-76" d="M35.88,221.5l-3.12,49.28,52.39-46.16Z" transform="translate(20.85 2.8)"/><path class="cls-77" d="M32.76,270.78,82,273.89l3.11-49.27Z" transform="translate(20.85 2.8)"/><path class="cls-74" d="M85.15,224.62,82,273.89l52.39-46.16Z" transform="translate(20.85 2.8)"/><path class="cls-78" d="M82,273.89,131.31,277l3.12-49.28Z" transform="translate(20.85 2.8)"/><path class="cls-79" d="M229.86,283.24,233,234l-49.28-3.11Z" transform="translate(20.85 2.8)"/><path class="cls-80" d="M180.59,280.12l49.27,3.12L183.7,230.85Z" transform="translate(20.85 2.8)"/><path class="cls-81" d="M134.43,227.73,131.31,277l52.39-46.16Z" transform="translate(20.85 2.8)"/><path class="cls-82" d="M131.31,277l49.28,3.11,3.11-49.27Z" transform="translate(20.85 2.8)"/><path class="cls-83" d="M32.76,270.78l-3.11,49.27L82,273.89Z" transform="translate(20.85 2.8)"/><path class="cls-84" d="M29.65,320.05l49.27,3.12L82,273.89Z" transform="translate(20.85 2.8)"/><path class="cls-63" d="M82,273.89l-3.12,49.28L131.31,277Z" transform="translate(20.85 2.8)"/><path class="cls-85" d="M78.92,323.17l49.28,3.11L131.31,277Z" transform="translate(20.85 2.8)"/><path class="cls-86" d="M131.31,277l-3.11,49.27,52.39-46.16Z" transform="translate(20.85 2.8)"/><path class="cls-87" d="M128.2,326.28l49.27,3.12,3.12-49.28Z" transform="translate(20.85 2.8)"/><path class="cls-83" d="M180.59,280.12l-3.12,49.28,52.39-46.16Z" transform="translate(20.85 2.8)"/><path class="cls-88" d="M177.47,329.4l49.28,3.11,3.11-49.27Z" transform="translate(20.85 2.8)"/><path class="cls-72" d="M229.86,283.24l-3.11,49.27,52.39-46.16Z" transform="translate(20.85 2.8)"/><path class="cls-89" d="M226.75,332.51,276,335.63l3.12-49.28Z" transform="translate(20.85 2.8)"/><path class="cls-90" d="M29.65,320.05l-3.12,49.28,52.39-46.16Z" transform="translate(20.85 2.8)"/><path class="cls-75" d="M26.53,369.33l49.28,3.11,3.11-49.27Z" transform="translate(20.85 2.8)"/><path class="cls-79" d="M177.47,329.4l-3.11,49.27,52.39-46.16Z" transform="translate(20.85 2.8)"/><path class="cls-91" d="M174.36,378.67l49.27,3.12,3.12-49.28Z" transform="translate(20.85 2.8)"/><path class="cls-92" d="M226.75,332.51l-3.12,49.28L276,335.63Z" transform="translate(20.85 2.8)"/><path class="cls-91" d="M223.63,381.79l49.28,3.11L276,335.63Z" transform="translate(20.85 2.8)"/><path class="cls-93" d="M78.92,323.17l-3.11,49.27,52.39-46.16Z" transform="translate(20.85 2.8)"/><path class="cls-94" d="M75.81,372.44l49.27,3.12,3.12-49.28Z" transform="translate(20.85 2.8)"/><path class="cls-93" d="M174.36,378.67l3.11-49.27-49.27-3.12Z" transform="translate(20.85 2.8)"/><path class="cls-95" d="M125.08,375.56l49.28,3.11L128.2,326.28Z" transform="translate(20.85 2.8)"/></g></g><g class="cls-96"><path class="cls-97" d="M367.77,270.66c-2.75.44-5.92,3.61-12.27,5.49s-12.85,3-15.59,1-4.77-.72-6.79-2.17-8.23-10.24-11.55-16.45-9.81-18.62-13.42-26.56-6.06-11.26-6.64-17-4-8.08-6.64-10a60.51,60.51,0,0,1-7.33-6.57l1-.64a69.4,69.4,0,0,0-11.41-12.56c-6.35-5.2-16.33-16.28-18.76-19.63-.91-1.26-1.73-2.5-2.39-3.56a6.8,6.8,0,0,1,.37-1.21c1.51-3.68-1.09-4.76-.22-6.93s8.66-18.4,13-27.71c1.31-2.82,2.23-4.92,2.94-6.62,0,0,2,1.23,6.88.68,7.35,11.16,10,20.48,15,23.18,5.31,2.84,12-4,17.41-8.84s16.28-18.86,18.17-19.47a22.4,22.4,0,0,0,8.87-6.15c3.16-3.56,4.41-4.3,4.23-6.1s-1-2.19-1-2.19a3.05,3.05,0,0,0,1.07-2.55,5.72,5.72,0,0,0-1.26-3s1.15-1.31-.71-3.57c0,0-.74-2.91-2.24-3.1s-3,2.36-5.79,4.56S326,98.14,326,98.14s-.57-1,.12-3.29-.34-5.37-1.87-6c0,0-.64-.68-1.24,1.74s-1.18,6.38-2.11,9.29a13,13,0,0,0,.66,8.2s-4.79,5.08-7.28,7.57-5.26,2.48-7.83,3.72a50.57,50.57,0,0,0-5.53,3.3s-1.48-3.62-3.16-7.28c-.27-.58-.5-1.08-.71-1.55l.64-.35s-5.33-11.23-5.93-16.44-.9-13-5-16.91a22.51,22.51,0,0,0-5.44-4.08,14.16,14.16,0,0,0-6.48-5.31,26.5,26.5,0,0,1,6.08-.61c1.9.3,3.87,1.74,5.31,1.51s2.18-2.31,2.89-3.23.9-1.28,1.54-1.34.92-1.88.92-1.88a2.35,2.35,0,0,0,1.06-1.57c0-.92,0-1.51.45-2s2.45-.28,3.09-.58,1.35-.32.93-1.59-1.18-3.76-1.45-5.13,1.4-4,1.84-8-.18-10.1-1.81-13.23C292.82,27.48,283.59,23,275,23.61s-12.15,5.6-14,10.33-2.12,12.53.14,16.71c1.71,3.15-1,9.37-2.49,12.26l-2.56-1.27a127,127,0,0,0-15.37,2.82A25.87,25.87,0,0,0,236.3,66c-3,0-7,1.24-11,1.8-5.47.76-11.61,1.17-13.22,1.82a2,2,0,0,0-1.21,1.25c-3.59.57-8.84,1.38-12.58,1.83-6.21.74-9.36-.37-12.25,2.12s-8.35,6.64-15.1,12.73-16.1,18.13-18.72,20.08-4.1.81-8.95,4.6c-1.85,1.45-4.44,3.55-5.71,4.32a6.74,6.74,0,0,0-3.33,3.86c-.76,2.2-1.87,4-1.14,4.34s1.72-.45,2.1-1.92,2.1-2.58,2.77-3-1.13,1.82-2,3.41-1.85,3.15-2.6,4.62-.33,2.58.41,2.59,1.59-1.58,2.34-3a11.71,11.71,0,0,1,3.47-3.47c1.24-1,2-1.42,2.54-.86s-3.41,4.59-4.94,5.88a15.1,15.1,0,0,0-3.22,4.41c-.41.87,1.07,1.92,1.9,1.14s1.63-2.46,2.94-3.43,4.63-4.11,5.33-4.63,1,.07.16,1.37a21.71,21.71,0,0,1-3.88,4.71c-1.4,1-2.85,1.62-2.31,2.9s1.9.77,3.08-.6,4-3,5.17-4.55a38.75,38.75,0,0,1,5.52-4.84c.79-.57,1.12.31.48,2.61s-1,3.91,0,5.4,2,.8,2.36-1.38,1.61-5.53,2.41-8.24a64.4,64.4,0,0,0,1.42-7.74s9.13-11.71,17.11-14.89S196.42,87,196.42,87s12.45.42,17.25.41l2,0c1.55,2.21,2.18,3,2.18,3s1.49,0,3.63,0c-2.09,9.08-2.41,18.71-1.94,23.18.65,6.28-2.6,12.12-2.6,16.89s-6.28,12.12-11.26,16.12a17.89,17.89,0,0,0-6.07,9.43c-1.87,2-4.9,7.22-5.05,12.12a33.4,33.4,0,0,1-1.87,11c-1,2.75-4.19,7.66-7,13.29s-8.8,14.86-10.53,17.75a2.31,2.31,0,0,0,.82,2c-1.8,2.12-3.64,4.25-4.74,5.42-2.69,2.86-2.55,1.08-6,.17s-13.64-7.58-33.35-7.36c-15.58.17-32.07-2.51-35.2-4.83s-9.85-7.95-14.36-8.39c0,0-4.47-1.17-6.82,4.93s-3.91,17.78-7.15,25.59a27.42,27.42,0,0,0,.28,21.71c2.69,6.22,7.75,4.57,9.81,1.82s6-12,9.22-15.79,8-6.42,8.81-8a11.88,11.88,0,0,1,1.67-2.4s18.88,2.59,29.84,5.76,25.53,5,34,9.32,13.56,1.76,18.76.14c3.76-1.17,15.72-9.29,24.38-15.63a16.59,16.59,0,0,1,3.52,2c3.18,2.45,3,1.73,3,1.3s8.8-7.94,10.68-13c1.37-3.7,8-9.27,13.13-14.66A96.06,96.06,0,0,0,248.67,209c8.71,4.81,12.71,5.91,12.71,5.91a36.84,36.84,0,0,0,3.56-1.23c1.44.89,3,1.79,4.52,2.53,4.89,2.4,14,8.68,14,8.68s3.44,15.72,9.65,24.67,17.17,19.49,21.79,26.7,9.24,15.88,9.24,15.88c-.43,2,1.3,5.49,3.32,9.39s3.75,7.94,5.2,7.5,13.57-8.51,24.25-17.46a83.86,83.86,0,0,0,16.46-18.48S370.51,270.23,367.77,270.66Z" transform="translate(20.85 2.8)"/><path class="cls-98" d="M231.06,205.42s24.11-26,26.85-48.07" transform="translate(20.85 2.8)"/><path class="cls-98" d="M198.73,150.85c6.93-4.23,16.17,6.06,32.33,10.39s38.26-1.73,38.26-1.73" transform="translate(20.85 2.8)"/><path class="cls-98" d="M211.58,227.94s-6.9-3.05-18.41-7.67a190.92,190.92,0,0,1-20.69-9.83" transform="translate(20.85 2.8)"/><path class="cls-98" d="M263.2,215.44a46.26,46.26,0,0,0,16.94-10c8.38-7.65,11.7-8.23,11.7-8.23" transform="translate(20.85 2.8)"/><path class="cls-98" d="M322.87,293.18a41.42,41.42,0,0,1,8.95-4.62c4.91-2-.58-8.37,4.33-13.57" transform="translate(20.85 2.8)"/><path class="cls-98" d="M327.49,305.6c.2-.61,10-7.94,28.79-19.49,6.7-4.12,11.4-11.8,15.67-19.49" transform="translate(20.85 2.8)"/><path class="cls-98" d="M95.66,201.09c.87,6.49-10,13.25-5.63,18.1s9.53,3.12,8.66,8.75" transform="translate(20.85 2.8)"/><path class="cls-98" d="M83.54,192.86c-1.74,9.09-5.63,19.92-10,29.45s-5.62,23.81,3.9,32" transform="translate(20.85 2.8)"/><path class="cls-98" d="M272,119.55s1.61-7.24-2.72-9.84-6.07-14.72,0-22.52,12.56-10.82,20.35-10" transform="translate(20.85 2.8)"/><path class="cls-98" d="M276.46,121.19a47.14,47.14,0,0,0,25.77-11.91" transform="translate(20.85 2.8)"/><path class="cls-98" d="M209.77,68.35s1.8,13.16,5.88,20.79" transform="translate(20.85 2.8)"/><path class="cls-98" d="M219.79,94.34s9-26.2,17.7-31.18" transform="translate(20.85 2.8)"/><path class="cls-98" d="M255.68,60.56s15.37,8.66,20.78,10.83a52.65,52.65,0,0,1,7.15,3.24" transform="translate(20.85 2.8)"/><g class="cls-4"><path class="cls-99" d="M143,15.72V64.3l48.59-48.58Z" transform="translate(20.85 2.8)"/><path class="cls-100" d="M143,64.3h48.59V15.72Z" transform="translate(20.85 2.8)"/><path class="cls-101" d="M191.58,15.72V64.3l48.58-48.58Z" transform="translate(20.85 2.8)"/><path class="cls-102" d="M191.58,64.3h48.58V15.72Z" transform="translate(20.85 2.8)"/><path class="cls-103" d="M240.16,15.72V64.3l48.59-48.58Z" transform="translate(20.85 2.8)"/><path class="cls-104" d="M240.16,64.3h48.59V15.72Z" transform="translate(20.85 2.8)"/><path class="cls-105" d="M288.75,15.72V64.3l48.58-48.58Z" transform="translate(20.85 2.8)"/><path class="cls-106" d="M288.75,64.3h48.58V15.72Z" transform="translate(20.85 2.8)"/><path class="cls-107" d="M143,64.3v48.59L191.58,64.3Z" transform="translate(20.85 2.8)"/><path class="cls-108" d="M143,112.89h48.59V64.3Z" transform="translate(20.85 2.8)"/><path class="cls-109" d="M191.58,64.3v48.59L240.16,64.3Z" transform="translate(20.85 2.8)"/><path class="cls-110" d="M191.58,112.89h48.58V64.3Z" transform="translate(20.85 2.8)"/><path class="cls-111" d="M240.16,64.3v48.59L288.75,64.3Z" transform="translate(20.85 2.8)"/><path class="cls-112" d="M240.16,112.89h48.59V64.3Z" transform="translate(20.85 2.8)"/><path class="cls-113" d="M288.75,64.3v48.59L337.33,64.3Z" transform="translate(20.85 2.8)"/><path class="cls-114" d="M288.75,112.89h48.58V64.3Z" transform="translate(20.85 2.8)"/><path class="cls-115" d="M337.33,64.3v48.59L385.92,64.3Z" transform="translate(20.85 2.8)"/><path class="cls-116" d="M337.33,112.89h48.59V64.3Z" transform="translate(20.85 2.8)"/><path class="cls-117" d="M385.92,161.47V112.89H337.33Z" transform="translate(20.85 2.8)"/><path class="cls-118" d="M337.33,161.47h48.59l-48.59-48.58Z" transform="translate(20.85 2.8)"/><path class="cls-110" d="M337.33,161.47V112.89H288.75Z" transform="translate(20.85 2.8)"/><path class="cls-119" d="M288.75,161.47h48.58l-48.58-48.58Z" transform="translate(20.85 2.8)"/><path class="cls-120" d="M288.75,161.47V112.89H240.16Z" transform="translate(20.85 2.8)"/><path class="cls-121" d="M240.16,161.47h48.59l-48.59-48.58Z" transform="translate(20.85 2.8)"/><path class="cls-122" d="M240.16,161.47V112.89H191.58Z" transform="translate(20.85 2.8)"/><path class="cls-123" d="M191.58,161.47h48.58l-48.58-48.58Z" transform="translate(20.85 2.8)"/><path class="cls-124" d="M191.58,161.47V112.89H143Z" transform="translate(20.85 2.8)"/><path class="cls-125" d="M143,161.47h48.59L143,112.89Z" transform="translate(20.85 2.8)"/><path class="cls-115" d="M143,161.47V112.89H94.4Z" transform="translate(20.85 2.8)"/><path class="cls-126" d="M94.4,161.47H143L94.4,112.89Z" transform="translate(20.85 2.8)"/><path class="cls-117" d="M45.82,161.47v48.59L94.4,161.47Z" transform="translate(20.85 2.8)"/><path class="cls-127" d="M45.82,210.06H94.4V161.47Z" transform="translate(20.85 2.8)"/><path class="cls-128" d="M94.4,161.47v48.59L143,161.47Z" transform="translate(20.85 2.8)"/><path class="cls-129" d="M94.4,210.06H143V161.47Z" transform="translate(20.85 2.8)"/><path class="cls-130" d="M143,161.47v48.59l48.59-48.59Z" transform="translate(20.85 2.8)"/><path class="cls-131" d="M143,210.06h48.59V161.47Z" transform="translate(20.85 2.8)"/><path class="cls-123" d="M191.58,161.47v48.59l48.58-48.59Z" transform="translate(20.85 2.8)"/><path class="cls-132" d="M191.58,210.06h48.58V161.47Z" transform="translate(20.85 2.8)"/><path class="cls-133" d="M337.33,210.06V161.47H288.75Z" transform="translate(20.85 2.8)"/><path class="cls-134" d="M288.75,210.06h48.58l-48.58-48.59Z" transform="translate(20.85 2.8)"/><path class="cls-135" d="M240.16,161.47v48.59l48.59-48.59Z" transform="translate(20.85 2.8)"/><path class="cls-136" d="M240.16,210.06h48.59V161.47Z" transform="translate(20.85 2.8)"/><path class="cls-133" d="M45.82,210.06v48.58L94.4,210.06Z" transform="translate(20.85 2.8)"/><path class="cls-111" d="M45.82,258.64H94.4V210.06Z" transform="translate(20.85 2.8)"/><path class="cls-137" d="M94.4,210.06v48.58L143,210.06Z" transform="translate(20.85 2.8)"/><path class="cls-107" d="M94.4,258.64H143V210.06Z" transform="translate(20.85 2.8)"/><path class="cls-138" d="M143,210.06v48.58l48.59-48.58Z" transform="translate(20.85 2.8)"/><path class="cls-139" d="M143,258.64h48.59V210.06Z" transform="translate(20.85 2.8)"/><path class="cls-112" d="M191.58,210.06v48.58l48.58-48.58Z" transform="translate(20.85 2.8)"/><path class="cls-140" d="M191.58,258.64h48.58V210.06Z" transform="translate(20.85 2.8)"/><path class="cls-141" d="M240.16,210.06v48.58l48.59-48.58Z" transform="translate(20.85 2.8)"/><path class="cls-142" d="M240.16,258.64h48.59V210.06Z" transform="translate(20.85 2.8)"/><path class="cls-138" d="M288.75,210.06v48.58l48.58-48.58Z" transform="translate(20.85 2.8)"/><path class="cls-143" d="M288.75,258.64h48.58V210.06Z" transform="translate(20.85 2.8)"/><path class="cls-121" d="M337.33,210.06v48.58l48.59-48.58Z" transform="translate(20.85 2.8)"/><path class="cls-144" d="M337.33,258.64h48.59V210.06Z" transform="translate(20.85 2.8)"/><path class="cls-128" d="M94.4,307.23V258.64H45.82Z" transform="translate(20.85 2.8)"/><path class="cls-145" d="M45.82,307.23H94.4L45.82,258.64Z" transform="translate(20.85 2.8)"/><path class="cls-133" d="M288.75,258.64v48.59l48.58-48.59Z" transform="translate(20.85 2.8)"/><path class="cls-146" d="M288.75,307.23h48.58V258.64Z" transform="translate(20.85 2.8)"/><path class="cls-147" d="M337.33,258.64v48.59l48.59-48.59Z" transform="translate(20.85 2.8)"/><path class="cls-146" d="M337.33,307.23h48.59V258.64Z" transform="translate(20.85 2.8)"/></g></g><g class="cls-148"><path class="cls-149" d="M252.73,40.66c-.37-1.82-2.8-1.69-2.8-1.69s.1-2.07-1.48-2.6-2.82,1.51-2.82,1.51a3.94,3.94,0,0,0-2.24-2.08,2.33,2.33,0,0,0-2.34.69s-1-2.11-2.52-2.08A3.81,3.81,0,0,0,236,35.64a10.9,10.9,0,0,1-3.1-.44c-1.33-.46-1.78,1.27-3.53,3.74s-3.15,3.62-2.87,4.89,3.25,6,2.93,8.51-2.12,3.28-3.31,5-8.72,6.79-14.49,9.43a41.57,41.57,0,0,0-9.49,6,127.19,127.19,0,0,0-17.64-9.6c-3.81-1.57-7-5.69-9.38-9.69a44.71,44.71,0,0,1,6,3.71c1.71,1.26,3.65.33,4.77-.34s1.84-3.44,2-4.81,1.11-1.45,1.56-2.14a3.35,3.35,0,0,0,.32-1.88,11.67,11.67,0,0,0,2-.61c1-.41.44-2.58.44-2.58a8.42,8.42,0,0,1,2.24.43c1.46.44,2.5.57,2.74-.83s-2.11-8-.92-9.59,1.34-2.52,1.36-4.63,1.15-8.38,1-10.07a5.59,5.59,0,0,1,.81-2.8l1.13,1.87s0-2.11,0-3.09a13.5,13.5,0,0,0-1-3l2,0s-.92-.83-3.11-2.93-3.16-1.26-3.16-1.26a23.27,23.27,0,0,0-3.42-4A33.58,33.58,0,0,0,188,2l.45,2.19s-.76-.66-1.87-1.76S181.18,0,181.18,0a11.44,11.44,0,0,1,.88,2.17c-1.33-.7.36-1-9,1s-11.25,7-12.72,10.85-2.34,9.47-2.88,12.41c-.31,1.66-1.8,3.9-3,5.52l-3.65-1.47c-3.18-1.27-4.35-3.34-8.46-2.7h0c-7.06-2.61-16.74-2.22-19.84-3-3.66-.95-13.37-3.5-24.51-5.73s-16.71-1.75-20,1.6-8.28,4.77-15.44,13.2S50.71,48.27,47.2,52.56s-8.43,6.21-10.5,10-2.23,5.73-1,7.64,1.11,3,2.86,4,1,.62,2.87,3,1.9-.64,4.13,1.12,3,.31,3,.31,1.43,2.07,2.7,1.28,1.75-2.71,3.66-5.72,1-3.35.16-5.9-1.59-5.57-1.59-5.57-.16-1.11,7.16-5.74,9.23-6.67,16.71-9.7a71,71,0,0,0,14.48-8.43s10.51,6.2,15.76,8.91l.48.24c-3.24,4.6-8,14.24-10.82,24.43C94,84.71,92.88,88.69,91.61,94.26S87,104,83,107.31s-4.61,7.32-7,10.19c-.22.26-.42.52-.62.77h0c-1.69,1.93-5.74,6.55-7.17,16.25s-.32,15.76-.48,17.35-4.61,9.71-6.2,18S58,188.32,56.75,191a72.62,72.62,0,0,1-12.09,18c-7.32,8.12-11.14,11.94-16.71,25.31S18.08,255.79,16,257.38a38.58,38.58,0,0,0-5.89,1.76c-4,1.43-7.64,2.54-9.55,4.13S2,270,3.44,277s3.5,17.66,4.77,21.48,3.5,6.53,8,8.76,7.16,1.43,7.16,1.43,2.39-1.27,1-5.57-2.71-8.44-2.71-11.46,4.78-12.89,5.09-16.23,4.3-11.14,7.17-17.83,24-31.19,28.32-37.08,12.1-10.5,15.92-16.23,11.14-17,15.91-25.3c3.17-5.49,8.07-11.19,12-18.39A49.49,49.49,0,0,0,118.18,159c15.6-4,37.56-12.41,37.56-12.41s-5.09,7-5.73,14.16-.16,18.62-.47,25-5.42,15.44-5.42,15.44-3.82-.64-8.27,3-7.32,6.05-7,7.48,10.5,17.19,18,25.94A78.32,78.32,0,0,0,162,251.34s3-2.07,3.18-4.62-2.23-10.34-4.61-14.64-1-12.41-2.23-15.6L157,213.3s6.69-16.71,10.67-27.69,8.91-19.1,10.66-28.49a159.63,159.63,0,0,1,5.41-20.85c1.27-3.81,1.12-6.84-2.07-11s-4.77-6.2-8.59-6.2-20.05-1.91-27.22-1.28c-5.62.5-9.2-.39-12.93-.38,2.54-2.76,9.06-14.32,12-18.55,3.18-4.62,10.19-14.6,13.05-18.76a46.71,46.71,0,0,1,3.16-4c5,2.4,11.28,5,16.07,7.24,9.68,4.51,22.51,8.14,25.29,8.36a9.93,9.93,0,0,0,8-3.09c2.55-2.49,17.55-16.24,23.17-22.79s9.74-7.14,12-11.87S250,45.24,250,45.24,253.09,42.48,252.73,40.66ZM121.84,118.93a15.93,15.93,0,0,1,2.33-.33l-2.62.42Z" transform="translate(20.85 2.8)"/><path class="cls-51" d="M140.2,200.73c3,.42,6.79,5.73,10.4,9.55s4.88,1.91,9.12,4.24" transform="translate(20.85 2.8)"/><path class="cls-51" d="M130,206.88c3.19,2.34,8.07,11,11.25,16.77s8.7,11.45,15.49,18.24S166.94,250,166.94,250" transform="translate(20.85 2.8)"/><path class="cls-51" d="M13.73,255.9c2.28,1.48,6.37,8.06,7.43,12.94s5.3,1.28,8.06,4.46a11.72,11.72,0,0,1,2.76,7" transform="translate(20.85 2.8)"/><path class="cls-51" d="M2.91,258.87c1.06,1.06,1.91,8.49,3.82,15.7s1.91,11.25,3,17,2.55,9.76,7.21,12.31S28.37,307,28.37,307" transform="translate(20.85 2.8)"/><path class="cls-51" d="M56.81,174.2c4.66,6,19.73,10.19,25.88,10.83s8.7.63,8.7.63" transform="translate(20.85 2.8)"/><path class="cls-51" d="M143,113.3c-4.46,2.76-4.88,3.82-10.61,4.67s-13.37,1.49-17.83,3-15.7,7.64-23.13,8.49-15.06-1.06-17-4.88a11,11,0,0,0-5.94-5.09" transform="translate(20.85 2.8)"/><path class="cls-51" d="M63.28,146.3C65.82,152,74.74,157.12,89.7,160s23.55,1.91,23.55,1.91" transform="translate(20.85 2.8)"/><path class="cls-51" d="M107.68,47.79c3.24,1.22,16,10.56,26.58,12.25S155,43.49,145.87,29.49" transform="translate(20.85 2.8)"/><path class="cls-51" d="M150.81,25.67c3.65,6.24,7.21,8.49,5.94,22.07s5.47,15.3,8.49,11a22.33,22.33,0,0,1,6.93-6.35" transform="translate(20.85 2.8)"/><path class="cls-51" d="M161.13,76.17c4.64-4.67,12.28-15.49,13.87-22.81" transform="translate(20.85 2.8)"/><g class="cls-4"><path class="cls-150" d="M289.44,48.92V-2.8H237.72Z" transform="translate(20.85 2.8)"/><path class="cls-151" d="M237.72,48.92h51.72L237.72-2.8Z" transform="translate(20.85 2.8)"/><path class="cls-152" d="M237.72,48.92V-2.8H186Z" transform="translate(20.85 2.8)"/><path class="cls-153" d="M186,48.92h51.71L186-2.8Z" transform="translate(20.85 2.8)"/><path class="cls-154" d="M186,48.92V-2.8H134.3Z" transform="translate(20.85 2.8)"/><path class="cls-155" d="M134.3,48.92H186L134.3-2.8Z" transform="translate(20.85 2.8)"/><path class="cls-156" d="M134.3,48.92V-2.8H82.58Z" transform="translate(20.85 2.8)"/><path class="cls-157" d="M82.58,48.92H134.3L82.58-2.8Z" transform="translate(20.85 2.8)"/><path class="cls-158" d="M82.58,48.92V-2.8H30.87Z" transform="translate(20.85 2.8)"/><path class="cls-159" d="M30.87,48.92H82.58L30.87-2.8Z" transform="translate(20.85 2.8)"/><path class="cls-153" d="M237.72,100.63V48.92H186Z" transform="translate(20.85 2.8)"/><path class="cls-160" d="M186,100.63h51.71L186,48.92Z" transform="translate(20.85 2.8)"/><path class="cls-159" d="M30.87,48.92v51.71L82.58,48.92Z" transform="translate(20.85 2.8)"/><path class="cls-161" d="M30.87,100.63H82.58V48.92Z" transform="translate(20.85 2.8)"/><path class="cls-162" d="M186,100.63V48.92H134.3Z" transform="translate(20.85 2.8)"/><path class="cls-163" d="M134.3,100.63H186L134.3,48.92Z" transform="translate(20.85 2.8)"/><path class="cls-164" d="M82.58,48.92v51.71L134.3,48.92Z" transform="translate(20.85 2.8)"/><path class="cls-165" d="M86.29,96.4H138V44.69Z" transform="translate(20.85 2.8)"/><path class="cls-165" d="M237.72,48.92v51.71l51.72-51.71Z" transform="translate(20.85 2.8)"/><path class="cls-166" d="M237.72,100.63h51.72V48.92Z" transform="translate(20.85 2.8)"/><path class="cls-167" d="M30.87,100.63v51.71l51.71-51.71Z" transform="translate(20.85 2.8)"/><path class="cls-168" d="M30.87,152.34H82.58V100.63Z" transform="translate(20.85 2.8)"/><path class="cls-169" d="M82.58,100.63v51.71l51.72-51.71Z" transform="translate(20.85 2.8)"/><path class="cls-170" d="M82.58,152.34H134.3V100.63Z" transform="translate(20.85 2.8)"/><path class="cls-150" d="M134.3,100.63v51.71L186,100.63Z" transform="translate(20.85 2.8)"/><path class="cls-171" d="M134.3,152.34H186V100.63Z" transform="translate(20.85 2.8)"/><path class="cls-162" d="M134.3,152.34v51.72L186,152.34Z" transform="translate(20.85 2.8)"/><path class="cls-172" d="M134.3,204.06H186V152.34Z" transform="translate(20.85 2.8)"/><path class="cls-173" d="M30.87,152.34v51.72l51.71-51.72Z" transform="translate(20.85 2.8)"/><path class="cls-174" d="M30.87,204.06H82.58V152.34Z" transform="translate(20.85 2.8)"/><path class="cls-173" d="M134.3,204.06V152.34H82.58Z" transform="translate(20.85 2.8)"/><path class="cls-175" d="M82.58,204.06H134.3L82.58,152.34Z" transform="translate(20.85 2.8)"/><path class="cls-176" d="M-20.85,204.06v51.71l51.72-51.71Z" transform="translate(20.85 2.8)"/><path class="cls-177" d="M-20.85,255.77H30.87V204.06Z" transform="translate(20.85 2.8)"/><path class="cls-178" d="M30.87,204.06v51.71l51.71-51.71Z" transform="translate(20.85 2.8)"/><path class="cls-179" d="M30.87,255.77H82.58V204.06Z" transform="translate(20.85 2.8)"/><path class="cls-171" d="M82.58,204.06v51.71l51.72-51.71Z" transform="translate(20.85 2.8)"/><path class="cls-180" d="M82.58,255.77H134.3V204.06Z" transform="translate(20.85 2.8)"/><path class="cls-156" d="M134.3,204.06v51.71L186,204.06Z" transform="translate(20.85 2.8)"/><path class="cls-181" d="M134.3,255.77H186V204.06Z" transform="translate(20.85 2.8)"/><path class="cls-167" d="M-20.85,255.77v51.72l51.72-51.72Z" transform="translate(20.85 2.8)"/><path class="cls-182" d="M-20.85,307.49H30.87V255.77Z" transform="translate(20.85 2.8)"/><path class="cls-154" d="M30.87,255.77v51.72l51.71-51.72Z" transform="translate(20.85 2.8)"/><path class="cls-176" d="M30.87,307.49H82.58V255.77Z" transform="translate(20.85 2.8)"/></g></g></g></g></g></svg>